<svg width="22" height="22" viewBox="0 0 22 22" fill="none" xmlns="http://www.w3.org/2000/svg">
<path fill-rule="evenodd" clip-rule="evenodd" d="M3.48001 0.600012L3.39948 0.599964C3.03396 0.599615 2.71888 0.599314 2.43974 0.666332C1.56219 0.877004 0.877004 1.56219 0.666332 2.43974C0.599314 2.71888 0.599615 3.03396 0.599964 3.39948L0.600012 3.48001V7.32001L0.599964 7.40054C0.599615 7.76606 0.599314 8.08117 0.666332 8.36029C0.877004 9.23784 1.56219 9.92302 2.43974 10.1337C2.71888 10.2007 3.03396 10.2004 3.39948 10.2001L3.48001 10.2H7.32001L7.40054 10.2001C7.76606 10.2004 8.08116 10.2007 8.36028 10.1337C9.23784 9.92302 9.92302 9.23784 10.1337 8.36029C10.2007 8.08117 10.2004 7.76606 10.2001 7.40054L10.2 7.32001V3.48001L10.2001 3.39948C10.2004 3.03396 10.2007 2.71888 10.1337 2.43974C9.92302 1.56219 9.23784 0.877004 8.36028 0.666332C8.08116 0.599314 7.76606 0.599615 7.40054 0.599964L7.32001 0.600012H3.48001ZM2.81326 2.22212C2.88212 2.20558 2.98756 2.20001 3.48001 2.20001H7.32001C7.81248 2.20001 7.91792 2.20558 7.98676 2.22212C8.27929 2.29235 8.50768 2.52073 8.57792 2.81326C8.59444 2.88212 8.60001 2.98756 8.60001 3.48001V7.32001C8.60001 7.81248 8.59444 7.91792 8.57792 7.98677C8.50768 8.27929 8.27929 8.50768 7.98676 8.57792C7.91792 8.59444 7.81248 8.60001 7.32001 8.60001H3.48001C2.98756 8.60001 2.88212 8.59444 2.81326 8.57792C2.52073 8.50768 2.29235 8.27929 2.22212 7.98677C2.20558 7.91792 2.20001 7.81248 2.20001 7.32001V3.48001C2.20001 2.98756 2.20558 2.88212 2.22212 2.81326C2.29235 2.52073 2.52073 2.29235 2.81326 2.22212ZM14.68 0.600012L14.5995 0.599964C14.234 0.599615 13.9189 0.599314 13.6397 0.666332C12.7622 0.877004 12.077 1.56219 11.8663 2.43974C11.7993 2.71888 11.7996 3.03396 11.8 3.39948L11.8 3.48001V7.32001L11.8 7.40054C11.7996 7.76606 11.7993 8.08117 11.8663 8.36029C12.077 9.23784 12.7622 9.92302 13.6397 10.1337C13.9189 10.2007 14.234 10.2004 14.5995 10.2001L14.68 10.2H18.52L18.6005 10.2001C18.9661 10.2004 19.2811 10.2007 19.5603 10.1337C20.4378 9.92302 21.1231 9.23784 21.3338 8.36029C21.4007 8.08117 21.4005 7.76606 21.4 7.40054V7.32001V3.48001V3.39948C21.4005 3.03396 21.4007 2.71888 21.3338 2.43974C21.1231 1.56219 20.4378 0.877004 19.5603 0.666332C19.2811 0.599314 18.9661 0.599615 18.6005 0.599964L18.52 0.600012H14.68ZM14.0133 2.22212C14.0821 2.20558 14.1876 2.20001 14.68 2.20001H18.52C19.0125 2.20001 19.1179 2.20558 19.1867 2.22212C19.4792 2.29235 19.7077 2.52073 19.7779 2.81326C19.7944 2.88212 19.8 2.98756 19.8 3.48001V7.32001C19.8 7.81248 19.7944 7.91792 19.7779 7.98677C19.7077 8.27929 19.4792 8.50768 19.1867 8.57792C19.1179 8.59444 19.0125 8.60001 18.52 8.60001H14.68C14.1876 8.60001 14.0821 8.59444 14.0133 8.57792C13.7207 8.50768 13.4923 8.27929 13.4221 7.98677C13.4056 7.91792 13.4 7.81248 13.4 7.32001V3.48001C13.4 2.98756 13.4056 2.88212 13.4221 2.81326C13.4923 2.52073 13.7207 2.29235 14.0133 2.22212ZM3.39948 11.8L3.48001 11.8H7.32001L7.40054 11.8C7.76606 11.7996 8.08116 11.7993 8.36028 11.8663C9.23784 12.077 9.92302 12.7622 10.1337 13.6397C10.2007 13.9189 10.2004 14.234 10.2001 14.5995L10.2 14.68V18.52L10.2001 18.6005C10.2004 18.9661 10.2007 19.2811 10.1337 19.5603C9.92302 20.4378 9.23784 21.1231 8.36028 21.3338C8.08116 21.4007 7.76606 21.4005 7.40054 21.4H7.32001H3.48001H3.39948C3.03396 21.4005 2.71888 21.4007 2.43974 21.3338C1.56219 21.1231 0.877004 20.4378 0.666332 19.5603C0.599314 19.2811 0.599615 18.9661 0.599964 18.6005L0.600012 18.52V14.68L0.599964 14.5995C0.599615 14.234 0.599314 13.9189 0.666332 13.6397C0.877004 12.7622 1.56219 12.077 2.43974 11.8663C2.71888 11.7993 3.03396 11.7996 3.39948 11.8ZM3.48001 13.4C2.98756 13.4 2.88212 13.4056 2.81326 13.4221C2.52073 13.4923 2.29235 13.7207 2.22212 14.0133C2.20558 14.0821 2.20001 14.1876 2.20001 14.68V18.52C2.20001 19.0125 2.20558 19.1179 2.22212 19.1867C2.29235 19.4792 2.52073 19.7077 2.81326 19.7779C2.88212 19.7944 2.98756 19.8 3.48001 19.8H7.32001C7.81248 19.8 7.91792 19.7944 7.98676 19.7779C8.27929 19.7077 8.50768 19.4792 8.57792 19.1867C8.59444 19.1179 8.60001 19.0125 8.60001 18.52V14.68C8.60001 14.1876 8.59444 14.0821 8.57792 14.0133C8.50768 13.7207 8.27929 13.4923 7.98676 13.4221C7.91792 13.4056 7.81248 13.4 7.32001 13.4H3.48001ZM14.68 11.8L14.5995 11.8C14.234 11.7996 13.9189 11.7993 13.6397 11.8663C12.7622 12.077 12.077 12.7622 11.8663 13.6397C11.7993 13.9189 11.7996 14.234 11.8 14.5995L11.8 14.68V18.52L11.8 18.6005C11.7996 18.9661 11.7993 19.2811 11.8663 19.5603C12.077 20.4378 12.7622 21.1231 13.6397 21.3338C13.9189 21.4007 14.234 21.4005 14.5995 21.4H14.68H18.52H18.6005C18.9661 21.4005 19.2811 21.4007 19.5603 21.3338C20.4378 21.1231 21.1231 20.4378 21.3338 19.5603C21.4007 19.2811 21.4005 18.9661 21.4 18.6005V18.52V14.68V14.5995C21.4005 14.234 21.4007 13.9189 21.3338 13.6397C21.1231 12.7622 20.4378 12.077 19.5603 11.8663C19.2811 11.7993 18.9661 11.7996 18.6005 11.8L18.52 11.8H14.68ZM14.0133 13.4221C14.0821 13.4056 14.1876 13.4 14.68 13.4H18.52C19.0125 13.4 19.1179 13.4056 19.1867 13.4221C19.4792 13.4923 19.7077 13.7207 19.7779 14.0133C19.7944 14.0821 19.8 14.1876 19.8 14.68V18.52C19.8 19.0125 19.7944 19.1179 19.7779 19.1867C19.7077 19.4792 19.4792 19.7077 19.1867 19.7779C19.1179 19.7944 19.0125 19.8 18.52 19.8H14.68C14.1876 19.8 14.0821 19.7944 14.0133 19.7779C13.7207 19.7077 13.4923 19.4792 13.4221 19.1867C13.4056 19.1179 13.4 19.0125 13.4 18.52V14.68C13.4 14.1876 13.4056 14.0821 13.4221 14.0133C13.4923 13.7207 13.7207 13.4923 14.0133 13.4221Z" fill="black"/>
</svg>
