<svg width="16" height="20" viewBox="0 0 16 20" fill="none" xmlns="http://www.w3.org/2000/svg">
<path d="M5 1V3M8 1V3M11 1V3M9 7H7H5M11 11H5M4.2 19H11.8C12.9201 19 13.4802 19 13.908 18.782C14.2843 18.5903 14.5903 18.2843 14.782 17.908C15 17.4802 15 16.9201 15 15.8V5.2C15 4.0799 15 3.51984 14.782 3.09202C14.5903 2.71569 14.2843 2.40973 13.908 2.21799C13.4802 2 12.9201 2 11.8 2H4.2C3.0799 2 2.51984 2 2.09202 2.21799C1.71569 2.40973 1.40973 2.71569 1.21799 3.09202C1 3.51984 1 4.07989 1 5.2V15.8C1 16.9201 1 17.4802 1.21799 17.908C1.40973 18.2843 1.71569 18.5903 2.09202 18.782C2.51984 19 3.07989 19 4.2 19Z" stroke="black" stroke-linecap="round" stroke-linejoin="round"/>
<path d="M5 15H9" stroke="black" stroke-linecap="round"/>
</svg>
