<svg width="375" height="822" viewBox="0 0 375 822" fill="none" xmlns="http://www.w3.org/2000/svg">
<path d="M190.433 18.2719C190.272 33.7855 201.192 68.3377 246.159 82.4376C302.368 100.062 351.871 70.3824 407.948 78.3439C449.337 84.2201 545.798 119.404 569.891 180.876" stroke="url(#paint0_linear_512_919)" stroke-width="2.0275"/>
<path d="M195.253 41.1764C195.092 56.69 206.011 91.2423 250.978 105.342C307.187 122.967 356.69 93.2869 412.768 101.248C454.157 107.125 550.617 142.309 574.711 203.781" stroke="url(#paint1_linear_512_919)" stroke-width="2.0275"/>
<path d="M199.486 64.1986C199.325 79.7123 210.244 114.265 255.212 128.364C311.42 145.989 360.924 116.309 417.001 124.271C458.39 130.147 554.851 165.331 578.944 226.803" stroke="url(#paint2_linear_512_919)" stroke-width="2.0275"/>
<path d="M203.146 87.319C202.985 102.833 213.905 137.385 258.872 151.485C315.081 169.11 364.584 139.429 420.661 147.391C462.05 153.267 558.511 188.452 582.604 249.923" stroke="url(#paint3_linear_512_919)" stroke-width="2.0275"/>
<path d="M206.212 110.526C206.051 126.039 216.97 160.591 261.937 174.691C318.146 192.316 367.649 162.636 423.726 170.598C465.116 176.474 561.576 211.658 585.67 273.13" stroke="url(#paint4_linear_512_919)" stroke-width="2.0275"/>
<path d="M208.646 133.806C208.485 149.32 219.405 183.872 264.372 197.972C320.581 215.597 370.084 185.917 426.161 193.878C467.55 199.755 564.011 234.939 588.104 296.411" stroke="url(#paint5_linear_512_919)" stroke-width="2.0275"/>
<path d="M210.396 157.149C210.235 172.663 221.155 207.215 266.122 221.315C322.331 238.94 371.834 209.26 427.911 217.221C469.3 223.097 565.761 258.282 589.854 319.754" stroke="url(#paint6_linear_512_919)" stroke-width="2.0275"/>
<path d="M211.392 180.536C211.231 196.05 222.151 230.602 267.118 244.702C323.327 262.327 372.83 232.647 428.907 240.608C470.296 246.484 566.757 281.669 590.85 343.141" stroke="url(#paint7_linear_512_919)" stroke-width="2.0275"/>
<path d="M211.547 203.944C211.385 219.457 222.305 254.01 267.272 268.109C323.481 285.734 372.984 256.054 429.061 264.016C470.451 269.892 566.911 305.076 591.005 366.548" stroke="url(#paint8_linear_512_919)" stroke-width="2.0275"/>
<path d="M210.75 227.338C210.589 242.852 221.508 277.404 266.475 291.504C322.684 309.129 372.187 279.449 428.265 287.41C469.654 293.287 566.114 328.471 590.208 389.943" stroke="url(#paint9_linear_512_919)" stroke-width="2.0275"/>
<path d="M208.864 250.67C208.703 266.184 219.622 300.736 264.589 314.836C320.798 332.461 370.302 302.781 426.379 310.742C467.768 316.618 564.228 351.803 588.322 413.275" stroke="url(#paint10_linear_512_919)" stroke-width="2.0275"/>
<path d="M205.72 273.866C205.559 289.38 216.479 323.932 261.446 338.032C317.655 355.657 367.158 325.977 423.235 333.938C464.625 339.815 561.085 374.999 585.179 436.471" stroke="url(#paint11_linear_512_919)" stroke-width="2.0275"/>
<path d="M201.108 296.816C200.947 312.329 211.866 346.882 256.834 360.981C313.042 378.606 362.546 348.926 418.623 356.888C460.012 362.764 556.473 397.948 580.566 459.42" stroke="url(#paint12_linear_512_919)" stroke-width="2.0275"/>
<path d="M194.775 319.351C194.614 334.865 205.533 369.417 250.501 383.517C306.709 401.141 356.213 371.461 412.29 379.423C453.679 385.299 550.14 420.484 574.233 481.955" stroke="url(#paint13_linear_512_919)" stroke-width="2.0275"/>
<path d="M186.427 341.22C186.266 356.734 197.186 391.286 242.153 405.386C298.362 423.011 347.865 393.331 403.942 401.292C445.332 407.168 541.792 442.353 565.886 503.824" stroke="url(#paint14_linear_512_919)" stroke-width="2.0275"/>
<path d="M175.753 362.052C175.592 377.566 186.511 412.118 231.478 426.218C287.687 443.843 337.19 414.163 393.268 422.124C434.657 428.001 531.117 463.185 555.211 524.657" stroke="url(#paint15_linear_512_919)" stroke-width="2.0275"/>
<path d="M162.482 381.335C162.321 396.849 173.241 431.401 218.208 445.501C274.417 463.126 323.92 433.446 379.997 441.407C421.386 447.284 517.847 482.468 541.94 543.94" stroke="url(#paint16_linear_512_919)" stroke-width="2.0275"/>
<path d="M143.649 401.553C143.488 417.067 154.408 451.619 199.375 465.719C255.584 483.344 305.087 453.663 361.164 461.625C402.553 467.501 499.014 502.686 523.107 564.157" stroke="url(#paint17_linear_512_919)" stroke-width="2.0275"/>
<path d="M128.158 419.102C127.997 434.616 138.916 469.168 183.883 483.268C240.092 500.892 289.595 471.212 345.673 479.174C387.062 485.05 483.522 520.235 507.616 581.706" stroke="url(#paint18_linear_512_919)" stroke-width="2.0275"/>
<path d="M114.169 437.87C114.008 453.384 124.927 487.936 169.894 502.036C226.103 519.661 275.606 489.981 331.684 497.942C373.073 503.819 469.533 539.003 493.627 600.475" stroke="url(#paint19_linear_512_919)" stroke-width="2.0275"/>
<path d="M101.775 457.728C101.614 473.242 112.533 507.794 157.501 521.894C213.709 539.519 263.213 509.839 319.29 517.8C360.679 523.676 457.14 558.861 481.233 620.333" stroke="url(#paint20_linear_512_919)" stroke-width="2.0275"/>
<path d="M91.0281 478.524C90.8669 494.037 101.786 528.589 146.754 542.689C202.962 560.314 252.466 530.634 308.543 538.596C349.932 544.472 446.393 579.656 470.486 641.128" stroke="url(#paint21_linear_512_919)" stroke-width="2.0275"/>
<path d="M81.9421 500.096C81.781 515.61 92.7005 550.162 137.668 564.262C193.876 581.887 243.38 552.206 299.457 560.168C340.846 566.044 437.307 601.229 461.4 662.7" stroke="url(#paint22_linear_512_919)" stroke-width="2.0275"/>
<path d="M74.4949 522.288C74.3337 537.802 85.2532 572.354 130.22 586.454C186.429 604.079 235.932 574.399 292.01 582.36C333.399 588.236 429.859 623.421 453.953 684.892" stroke="url(#paint23_linear_512_919)" stroke-width="2.0275"/>
<path d="M68.6404 544.952C68.4792 560.466 79.3987 595.018 124.366 609.118C180.575 626.743 230.078 597.063 286.155 605.024C327.544 610.9 424.005 646.085 448.098 707.557" stroke="url(#paint24_linear_512_919)" stroke-width="2.0275"/>
<path d="M64.3171 567.958C64.156 583.471 75.0755 618.023 120.043 632.123C176.251 649.748 225.755 620.068 281.832 628.03C323.221 633.906 419.682 669.09 443.775 730.562" stroke="url(#paint25_linear_512_919)" stroke-width="2.0275"/>
<path d="M61.4558 591.19C61.2947 606.704 72.2141 641.256 117.181 655.356C173.39 672.981 222.893 643.301 278.971 651.262C320.36 657.139 416.82 692.323 440.914 753.795" stroke="url(#paint26_linear_512_919)" stroke-width="2.0275"/>
<path d="M59.991 614.553C59.8298 630.066 70.7493 664.619 115.716 678.718C171.925 696.343 221.428 666.663 277.506 674.625C318.895 680.501 415.355 715.685 439.449 777.157" stroke="url(#paint27_linear_512_919)" stroke-width="2.0275"/>
<path d="M59.8689 637.955C59.7078 653.469 70.6272 688.021 115.594 702.121C171.803 719.746 221.306 690.066 277.384 698.027C318.773 703.904 415.233 739.088 439.327 800.56" stroke="url(#paint28_linear_512_919)" stroke-width="2.0275"/>
<defs>
<linearGradient id="paint0_linear_512_919" x1="186.662" y1="28.9878" x2="575.217" y2="165.747" gradientUnits="userSpaceOnUse">
<stop stop-color="white" stop-opacity="0"/>
<stop offset="1" stop-color="#C49494"/>
</linearGradient>
<linearGradient id="paint1_linear_512_919" x1="191.481" y1="51.8923" x2="580.036" y2="188.651" gradientUnits="userSpaceOnUse">
<stop stop-color="white" stop-opacity="0"/>
<stop offset="1" stop-color="#C49494"/>
</linearGradient>
<linearGradient id="paint2_linear_512_919" x1="195.714" y1="74.9146" x2="584.269" y2="211.673" gradientUnits="userSpaceOnUse">
<stop stop-color="white" stop-opacity="0"/>
<stop offset="1" stop-color="#C49494"/>
</linearGradient>
<linearGradient id="paint3_linear_512_919" x1="199.375" y1="98.0349" x2="587.929" y2="234.794" gradientUnits="userSpaceOnUse">
<stop stop-color="white" stop-opacity="0"/>
<stop offset="1" stop-color="#C49494"/>
</linearGradient>
<linearGradient id="paint4_linear_512_919" x1="202.44" y1="121.242" x2="590.995" y2="258" gradientUnits="userSpaceOnUse">
<stop stop-color="white" stop-opacity="0"/>
<stop offset="1" stop-color="#C49494"/>
</linearGradient>
<linearGradient id="paint5_linear_512_919" x1="204.875" y1="144.522" x2="593.429" y2="281.281" gradientUnits="userSpaceOnUse">
<stop stop-color="white" stop-opacity="0"/>
<stop offset="1" stop-color="#C49494"/>
</linearGradient>
<linearGradient id="paint6_linear_512_919" x1="206.625" y1="167.865" x2="595.179" y2="304.624" gradientUnits="userSpaceOnUse">
<stop stop-color="white" stop-opacity="0"/>
<stop offset="1" stop-color="#C49494"/>
</linearGradient>
<linearGradient id="paint7_linear_512_919" x1="207.621" y1="191.252" x2="596.176" y2="328.011" gradientUnits="userSpaceOnUse">
<stop stop-color="white" stop-opacity="0"/>
<stop offset="1" stop-color="#C49494"/>
</linearGradient>
<linearGradient id="paint8_linear_512_919" x1="207.775" y1="214.66" x2="596.33" y2="351.419" gradientUnits="userSpaceOnUse">
<stop stop-color="white" stop-opacity="0"/>
<stop offset="1" stop-color="#C49494"/>
</linearGradient>
<linearGradient id="paint9_linear_512_919" x1="206.978" y1="238.054" x2="595.533" y2="374.813" gradientUnits="userSpaceOnUse">
<stop stop-color="white" stop-opacity="0"/>
<stop offset="1" stop-color="#C49494"/>
</linearGradient>
<linearGradient id="paint10_linear_512_919" x1="205.092" y1="261.386" x2="593.647" y2="398.145" gradientUnits="userSpaceOnUse">
<stop stop-color="white" stop-opacity="0"/>
<stop offset="1" stop-color="#C49494"/>
</linearGradient>
<linearGradient id="paint11_linear_512_919" x1="201.949" y1="284.582" x2="590.504" y2="421.341" gradientUnits="userSpaceOnUse">
<stop stop-color="white" stop-opacity="0"/>
<stop offset="1" stop-color="#C49494"/>
</linearGradient>
<linearGradient id="paint12_linear_512_919" x1="197.337" y1="307.532" x2="585.891" y2="444.29" gradientUnits="userSpaceOnUse">
<stop stop-color="white" stop-opacity="0"/>
<stop offset="1" stop-color="#C49494"/>
</linearGradient>
<linearGradient id="paint13_linear_512_919" x1="191.003" y1="330.067" x2="579.558" y2="466.826" gradientUnits="userSpaceOnUse">
<stop stop-color="white" stop-opacity="0"/>
<stop offset="1" stop-color="#C49494"/>
</linearGradient>
<linearGradient id="paint14_linear_512_919" x1="182.656" y1="351.936" x2="571.211" y2="488.695" gradientUnits="userSpaceOnUse">
<stop stop-color="white" stop-opacity="0"/>
<stop offset="1" stop-color="#C49494"/>
</linearGradient>
<linearGradient id="paint15_linear_512_919" x1="171.981" y1="372.768" x2="560.536" y2="509.527" gradientUnits="userSpaceOnUse">
<stop stop-color="white" stop-opacity="0"/>
<stop offset="1" stop-color="#C49494"/>
</linearGradient>
<linearGradient id="paint16_linear_512_919" x1="158.711" y1="392.051" x2="547.265" y2="528.81" gradientUnits="userSpaceOnUse">
<stop stop-color="white" stop-opacity="0"/>
<stop offset="1" stop-color="#C49494"/>
</linearGradient>
<linearGradient id="paint17_linear_512_919" x1="139.878" y1="412.269" x2="528.432" y2="549.028" gradientUnits="userSpaceOnUse">
<stop stop-color="white" stop-opacity="0"/>
<stop offset="1" stop-color="#C49494"/>
</linearGradient>
<linearGradient id="paint18_linear_512_919" x1="124.386" y1="429.818" x2="512.941" y2="566.577" gradientUnits="userSpaceOnUse">
<stop stop-color="white" stop-opacity="0"/>
<stop offset="1" stop-color="#C49494"/>
</linearGradient>
<linearGradient id="paint19_linear_512_919" x1="110.397" y1="448.586" x2="498.952" y2="585.345" gradientUnits="userSpaceOnUse">
<stop stop-color="white" stop-opacity="0"/>
<stop offset="1" stop-color="#C49494"/>
</linearGradient>
<linearGradient id="paint20_linear_512_919" x1="98.0035" y1="468.444" x2="486.558" y2="605.203" gradientUnits="userSpaceOnUse">
<stop stop-color="white" stop-opacity="0"/>
<stop offset="1" stop-color="#C49494"/>
</linearGradient>
<linearGradient id="paint21_linear_512_919" x1="87.2564" y1="489.239" x2="475.811" y2="625.998" gradientUnits="userSpaceOnUse">
<stop stop-color="white" stop-opacity="0"/>
<stop offset="1" stop-color="#C49494"/>
</linearGradient>
<linearGradient id="paint22_linear_512_919" x1="78.1705" y1="510.812" x2="466.725" y2="647.571" gradientUnits="userSpaceOnUse">
<stop stop-color="white" stop-opacity="0"/>
<stop offset="1" stop-color="#C49494"/>
</linearGradient>
<linearGradient id="paint23_linear_512_919" x1="70.7232" y1="533.004" x2="459.278" y2="669.763" gradientUnits="userSpaceOnUse">
<stop stop-color="white" stop-opacity="0"/>
<stop offset="1" stop-color="#C49494"/>
</linearGradient>
<linearGradient id="paint24_linear_512_919" x1="64.8687" y1="555.668" x2="453.424" y2="692.427" gradientUnits="userSpaceOnUse">
<stop stop-color="white" stop-opacity="0"/>
<stop offset="1" stop-color="#C49494"/>
</linearGradient>
<linearGradient id="paint25_linear_512_919" x1="60.5455" y1="578.674" x2="449.1" y2="715.432" gradientUnits="userSpaceOnUse">
<stop stop-color="white" stop-opacity="0"/>
<stop offset="1" stop-color="#C49494"/>
</linearGradient>
<linearGradient id="paint26_linear_512_919" x1="57.6842" y1="601.906" x2="446.239" y2="738.665" gradientUnits="userSpaceOnUse">
<stop stop-color="white" stop-opacity="0"/>
<stop offset="1" stop-color="#C49494"/>
</linearGradient>
<linearGradient id="paint27_linear_512_919" x1="56.2193" y1="625.269" x2="444.774" y2="762.028" gradientUnits="userSpaceOnUse">
<stop stop-color="white" stop-opacity="0"/>
<stop offset="1" stop-color="#C49494"/>
</linearGradient>
<linearGradient id="paint28_linear_512_919" x1="56.0972" y1="648.671" x2="444.652" y2="785.43" gradientUnits="userSpaceOnUse">
<stop stop-color="white" stop-opacity="0"/>
<stop offset="1" stop-color="#C49494"/>
</linearGradient>
</defs>
</svg>
