<svg width="375" height="1296" viewBox="0 0 375 1296" fill="none" xmlns="http://www.w3.org/2000/svg">
<path d="M854.169 482.455C695.054 451.74 441.896 413.999 510.587 602.656C598.001 842.734 989.825 926.928 772.628 1011.27" stroke="url(#paint0_linear_512_875)" stroke-width="8.2894"/>
<path d="M803.932 454.96C644.816 424.245 391.659 386.504 460.35 575.16C547.764 815.238 939.588 899.433 722.391 983.772" stroke="url(#paint1_linear_512_875)" stroke-width="8.2894"/>
<path d="M753.283 428.226C594.168 397.511 341.011 359.77 409.701 548.426C497.115 788.505 888.939 872.699 671.743 957.038" stroke="url(#paint2_linear_512_875)" stroke-width="8.2894"/>
<path d="M702.101 402.533C542.985 371.818 289.828 334.077 358.519 522.733C445.933 762.812 837.757 847.006 620.56 931.345" stroke="url(#paint3_linear_512_875)" stroke-width="8.2894"/>
<path d="M650.315 378.077C491.199 347.361 238.042 309.621 306.733 498.277C394.146 738.355 785.971 822.549 568.774 906.888" stroke="url(#paint4_linear_512_875)" stroke-width="8.2894"/>
<path d="M597.591 354.819C438.476 324.104 185.318 286.363 254.009 475.019C341.423 715.098 733.247 799.292 516.05 883.631" stroke="url(#paint5_linear_512_875)" stroke-width="8.2894"/>
<path d="M544.81 332.592C385.694 301.876 132.537 264.136 201.228 452.792C288.642 692.87 680.466 777.064 463.269 861.403" stroke="url(#paint6_linear_512_875)" stroke-width="8.2894"/>
<path d="M491.714 311.129C332.599 280.413 79.4412 242.673 148.132 431.329C235.546 671.407 627.37 755.601 410.173 839.94" stroke="url(#paint7_linear_512_875)" stroke-width="8.2894"/>
<path d="M438.273 290.54C279.157 259.825 25.9998 222.084 94.6906 410.74C182.104 650.818 573.929 735.013 356.732 819.352" stroke="url(#paint8_linear_512_875)" stroke-width="8.2894"/>
<path d="M384.452 270.964C225.337 240.249 -27.8205 202.508 40.8703 391.164C128.284 631.243 520.108 715.437 302.912 799.776" stroke="url(#paint9_linear_512_875)" stroke-width="8.2894"/>
<path d="M330.213 252.58C171.098 221.865 -82.0597 184.124 -13.369 372.78C74.0448 612.858 465.869 697.053 248.672 781.392" stroke="url(#paint10_linear_512_875)" stroke-width="8.2894"/>
<path d="M275.51 235.624C116.395 204.909 -136.763 167.169 -68.0721 355.825C19.3417 595.903 411.166 680.097 193.969 764.436" stroke="url(#paint11_linear_512_875)" stroke-width="8.2894"/>
<path d="M220.294 220.422C61.1787 189.707 -191.979 151.966 -123.288 340.622C-35.8741 580.701 355.95 664.895 138.753 749.234" stroke="url(#paint12_linear_512_875)" stroke-width="8.2894"/>
<path d="M164.515 207.436C5.39944 176.721 -247.758 138.98 -179.067 327.637C-91.6534 567.715 300.171 651.909 82.9742 736.248" stroke="url(#paint13_linear_512_875)" stroke-width="8.2894"/>
<path d="M108.137 197.348C-50.9785 166.633 -304.136 128.892 -235.445 317.548C-148.031 557.626 243.793 641.821 26.5963 726.16" stroke="url(#paint14_linear_512_875)" stroke-width="8.2894"/>
<path d="M51.2169 191.167C-107.898 160.451 -361.056 122.711 -292.365 311.367C-204.951 551.445 186.873 635.639 -30.3237 719.978" stroke="url(#paint15_linear_512_875)" stroke-width="8.2894"/>
<path d="M-5.63855 189.685C-164.754 158.969 -417.911 121.229 -349.221 309.885C-261.807 549.963 130.018 634.157 -87.1791 718.497" stroke="url(#paint16_linear_512_875)" stroke-width="8.2894"/>
<defs>
<linearGradient id="paint0_linear_512_875" x1="771.947" y1="453.294" x2="596.241" y2="948.709" gradientUnits="userSpaceOnUse">
<stop stop-color="#D9DFD0" stop-opacity="0"/>
<stop offset="0.666667" stop-color="#D9DFD0"/>
<stop offset="1" stop-color="#D9DFD0" stop-opacity="0"/>
</linearGradient>
<linearGradient id="paint1_linear_512_875" x1="721.71" y1="425.799" x2="546.004" y2="921.213" gradientUnits="userSpaceOnUse">
<stop stop-color="#D9DFD0" stop-opacity="0"/>
<stop offset="0.666667" stop-color="#D9DFD0"/>
<stop offset="1" stop-color="#D9DFD0" stop-opacity="0"/>
</linearGradient>
<linearGradient id="paint2_linear_512_875" x1="671.061" y1="399.065" x2="495.355" y2="894.48" gradientUnits="userSpaceOnUse">
<stop stop-color="#D9DFD0" stop-opacity="0"/>
<stop offset="0.666667" stop-color="#D9DFD0"/>
<stop offset="1" stop-color="#D9DFD0" stop-opacity="0"/>
</linearGradient>
<linearGradient id="paint3_linear_512_875" x1="619.879" y1="373.372" x2="444.173" y2="868.787" gradientUnits="userSpaceOnUse">
<stop stop-color="#D9DFD0" stop-opacity="0"/>
<stop offset="0.666667" stop-color="#D9DFD0"/>
<stop offset="1" stop-color="#D9DFD0" stop-opacity="0"/>
</linearGradient>
<linearGradient id="paint4_linear_512_875" x1="568.093" y1="348.915" x2="392.387" y2="844.33" gradientUnits="userSpaceOnUse">
<stop stop-color="#D9DFD0" stop-opacity="0"/>
<stop offset="0.666667" stop-color="#D9DFD0"/>
<stop offset="1" stop-color="#D9DFD0" stop-opacity="0"/>
</linearGradient>
<linearGradient id="paint5_linear_512_875" x1="515.369" y1="325.658" x2="339.663" y2="821.073" gradientUnits="userSpaceOnUse">
<stop stop-color="#D9DFD0" stop-opacity="0"/>
<stop offset="0.666667" stop-color="#D9DFD0"/>
<stop offset="1" stop-color="#D9DFD0" stop-opacity="0"/>
</linearGradient>
<linearGradient id="paint6_linear_512_875" x1="462.588" y1="303.43" x2="286.882" y2="798.845" gradientUnits="userSpaceOnUse">
<stop stop-color="#D9DFD0" stop-opacity="0"/>
<stop offset="0.666667" stop-color="#D9DFD0"/>
<stop offset="1" stop-color="#D9DFD0" stop-opacity="0"/>
</linearGradient>
<linearGradient id="paint7_linear_512_875" x1="409.492" y1="281.967" x2="233.786" y2="777.382" gradientUnits="userSpaceOnUse">
<stop stop-color="#D9DFD0" stop-opacity="0"/>
<stop offset="0.666667" stop-color="#D9DFD0"/>
<stop offset="1" stop-color="#D9DFD0" stop-opacity="0"/>
</linearGradient>
<linearGradient id="paint8_linear_512_875" x1="356.051" y1="261.379" x2="180.345" y2="756.793" gradientUnits="userSpaceOnUse">
<stop stop-color="#D9DFD0" stop-opacity="0"/>
<stop offset="0.666667" stop-color="#D9DFD0"/>
<stop offset="1" stop-color="#D9DFD0" stop-opacity="0"/>
</linearGradient>
<linearGradient id="paint9_linear_512_875" x1="302.23" y1="241.803" x2="126.524" y2="737.218" gradientUnits="userSpaceOnUse">
<stop stop-color="#D9DFD0" stop-opacity="0"/>
<stop offset="0.666667" stop-color="#D9DFD0"/>
<stop offset="1" stop-color="#D9DFD0" stop-opacity="0"/>
</linearGradient>
<linearGradient id="paint10_linear_512_875" x1="247.991" y1="223.419" x2="72.2851" y2="718.833" gradientUnits="userSpaceOnUse">
<stop stop-color="#D9DFD0" stop-opacity="0"/>
<stop offset="0.666667" stop-color="#D9DFD0"/>
<stop offset="1" stop-color="#D9DFD0" stop-opacity="0"/>
</linearGradient>
<linearGradient id="paint11_linear_512_875" x1="193.288" y1="206.463" x2="17.582" y2="701.878" gradientUnits="userSpaceOnUse">
<stop stop-color="#D9DFD0" stop-opacity="0"/>
<stop offset="0.666667" stop-color="#D9DFD0"/>
<stop offset="1" stop-color="#D9DFD0" stop-opacity="0"/>
</linearGradient>
<linearGradient id="paint12_linear_512_875" x1="138.072" y1="191.261" x2="-37.6338" y2="686.676" gradientUnits="userSpaceOnUse">
<stop stop-color="#D9DFD0" stop-opacity="0"/>
<stop offset="0.666667" stop-color="#D9DFD0"/>
<stop offset="1" stop-color="#D9DFD0" stop-opacity="0"/>
</linearGradient>
<linearGradient id="paint13_linear_512_875" x1="82.2929" y1="178.275" x2="-93.4131" y2="673.69" gradientUnits="userSpaceOnUse">
<stop stop-color="#D9DFD0" stop-opacity="0"/>
<stop offset="0.666667" stop-color="#D9DFD0"/>
<stop offset="1" stop-color="#D9DFD0" stop-opacity="0"/>
</linearGradient>
<linearGradient id="paint14_linear_512_875" x1="25.915" y1="168.187" x2="-149.791" y2="663.601" gradientUnits="userSpaceOnUse">
<stop stop-color="#D9DFD0" stop-opacity="0"/>
<stop offset="0.666667" stop-color="#D9DFD0"/>
<stop offset="1" stop-color="#D9DFD0" stop-opacity="0"/>
</linearGradient>
<linearGradient id="paint15_linear_512_875" x1="-31.005" y1="162.005" x2="-206.711" y2="657.42" gradientUnits="userSpaceOnUse">
<stop stop-color="#D9DFD0" stop-opacity="0"/>
<stop offset="0.666667" stop-color="#D9DFD0"/>
<stop offset="1" stop-color="#D9DFD0" stop-opacity="0"/>
</linearGradient>
<linearGradient id="paint16_linear_512_875" x1="-87.8604" y1="160.524" x2="-263.566" y2="655.938" gradientUnits="userSpaceOnUse">
<stop stop-color="#D9DFD0" stop-opacity="0"/>
<stop offset="0.666667" stop-color="#D9DFD0"/>
<stop offset="1" stop-color="#D9DFD0" stop-opacity="0"/>
</linearGradient>
</defs>
</svg>
