<svg width="68" height="27" viewBox="0 0 68 27" fill="none" xmlns="http://www.w3.org/2000/svg">
<path d="M0.119141 3.1377L0.119141 12.7222H9.70363V3.1377H0.119141ZM10.7001 3.1377V12.7222H20.2829V3.1377H10.7001ZM0.119141 13.7186L0.119141 23.3014H9.70363V13.7186H0.119141ZM10.7001 13.7186V23.3014H20.2829V13.7186H10.7001Z" fill="black"/>
<path d="M23.8487 3.56063H24.9846L27.1194 9.25505L29.2491 3.56063H30.3849L27.5656 10.9436H26.663L23.8487 3.56063ZM23.3315 3.56063H24.4116L24.5992 8.48937V10.9436H23.3315V3.56063ZM29.822 3.56063H30.9072V10.9436H29.6344V8.48937L29.822 3.56063ZM33.6048 5.45708V10.9436H32.3777V5.45708H33.6048ZM32.2966 4.017C32.2966 3.83107 32.3574 3.67726 32.4791 3.55556C32.6042 3.43048 32.7766 3.36794 32.9963 3.36794C33.2127 3.36794 33.3834 3.43048 33.5085 3.55556C33.6335 3.67726 33.6961 3.83107 33.6961 4.017C33.6961 4.19954 33.6335 4.35166 33.5085 4.47336C33.3834 4.59506 33.2127 4.65591 32.9963 4.65591C32.7766 4.65591 32.6042 4.59506 32.4791 4.47336C32.3574 4.35166 32.2966 4.19954 32.2966 4.017ZM37.1847 10.0714C37.3842 10.0714 37.5634 10.0326 37.7222 9.95481C37.8845 9.87368 38.0146 9.76213 38.1127 9.62014C38.2141 9.47816 38.2699 9.31421 38.28 9.12828H39.4311C39.4243 9.48324 39.3195 9.80607 39.1167 10.0968C38.9139 10.3875 38.6451 10.6191 38.3104 10.7915C37.9758 10.9605 37.6056 11.045 37.1999 11.045C36.7808 11.045 36.4157 10.974 36.1047 10.832C35.7937 10.6867 35.5351 10.4872 35.3289 10.2337C35.1226 9.98017 34.9671 9.68775 34.8623 9.35647C34.7609 9.02518 34.7102 8.67023 34.7102 8.29162V8.11414C34.7102 7.73553 34.7609 7.38058 34.8623 7.04929C34.9671 6.71462 35.1226 6.42052 35.3289 6.16698C35.5351 5.91345 35.7937 5.71569 36.1047 5.57371C36.4157 5.42835 36.7791 5.35567 37.1949 5.35567C37.6343 5.35567 38.0197 5.44356 38.351 5.61934C38.6823 5.79175 38.9426 6.03345 39.1319 6.34446C39.3246 6.65208 39.4243 7.01041 39.4311 7.41945H38.28C38.2699 7.21662 38.2192 7.03408 38.1279 6.87181C38.04 6.70617 37.9149 6.57433 37.7527 6.4763C37.5938 6.37826 37.4028 6.32925 37.1797 6.32925C36.9329 6.32925 36.7284 6.37995 36.5661 6.48137C36.4038 6.5794 36.2771 6.71462 36.1858 6.88703C36.0945 7.05605 36.0286 7.24705 35.988 7.46002C35.9509 7.66961 35.9323 7.88765 35.9323 8.11414V8.29162C35.9323 8.51811 35.9509 8.73784 35.988 8.95081C36.0252 9.16378 36.0895 9.35478 36.1807 9.5238C36.2754 9.68944 36.4038 9.82297 36.5661 9.92439C36.7284 10.0224 36.9346 10.0714 37.1847 10.0714ZM41.5963 6.50165V10.9436H40.3742V5.45708H41.5405L41.5963 6.50165ZM43.2747 5.42159L43.2645 6.55743C43.1902 6.54391 43.109 6.53376 43.0211 6.527C42.9366 6.52024 42.8521 6.51686 42.7676 6.51686C42.558 6.51686 42.3738 6.54729 42.2149 6.60814C42.056 6.6656 41.9225 6.75012 41.8143 6.86167C41.7095 6.96985 41.6284 7.10169 41.5709 7.25719C41.5134 7.41269 41.4796 7.58678 41.4695 7.77947L41.1906 7.79976C41.1906 7.45495 41.2244 7.13549 41.292 6.84139C41.3596 6.54729 41.461 6.28868 41.5963 6.06557C41.7349 5.84246 41.9073 5.66836 42.1135 5.54328C42.3231 5.41821 42.5648 5.35567 42.8386 5.35567C42.913 5.35567 42.9924 5.36243 43.0769 5.37595C43.1648 5.38947 43.2307 5.40468 43.2747 5.42159ZM43.6753 8.26119V8.14456C43.6753 7.74905 43.7327 7.38227 43.8477 7.04422C43.9626 6.70279 44.1282 6.407 44.3446 6.15684C44.5643 5.9033 44.8314 5.70724 45.1458 5.56864C45.4635 5.42666 45.8219 5.35567 46.2208 5.35567C46.623 5.35567 46.9814 5.42666 47.2958 5.56864C47.6135 5.70724 47.8823 5.9033 48.102 6.15684C48.3217 6.407 48.4891 6.70279 48.604 7.04422C48.7189 7.38227 48.7764 7.74905 48.7764 8.14456V8.26119C48.7764 8.65671 48.7189 9.02349 48.604 9.36154C48.4891 9.69959 48.3217 9.99538 48.102 10.2489C47.8823 10.4991 47.6152 10.6951 47.3008 10.8371C46.9864 10.9757 46.6298 11.045 46.2309 11.045C45.8286 11.045 45.4686 10.9757 45.1508 10.8371C44.8365 10.6951 44.5694 10.4991 44.3497 10.2489C44.1299 9.99538 43.9626 9.69959 43.8477 9.36154C43.7327 9.02349 43.6753 8.65671 43.6753 8.26119ZM44.8973 8.14456V8.26119C44.8973 8.50797 44.9227 8.74122 44.9734 8.96095C45.0241 9.18068 45.1035 9.37337 45.2117 9.53901C45.3199 9.70466 45.4585 9.83481 45.6275 9.92946C45.7965 10.0241 45.9977 10.0714 46.2309 10.0714C46.4574 10.0714 46.6535 10.0241 46.8191 9.92946C46.9881 9.83481 47.1267 9.70466 47.2349 9.53901C47.3431 9.37337 47.4225 9.18068 47.4732 8.96095C47.5273 8.74122 47.5544 8.50797 47.5544 8.26119V8.14456C47.5544 7.90117 47.5273 7.6713 47.4732 7.45495C47.4225 7.23521 47.3414 7.04084 47.2298 6.87181C47.1217 6.70279 46.9831 6.57095 46.814 6.4763C46.6484 6.37826 46.4506 6.32925 46.2208 6.32925C45.9909 6.32925 45.7914 6.37826 45.6224 6.4763C45.4568 6.57095 45.3199 6.70279 45.2117 6.87181C45.1035 7.04084 45.0241 7.23521 44.9734 7.45495C44.9227 7.6713 44.8973 7.90117 44.8973 8.14456ZM52.8786 9.45788C52.8786 9.33618 52.8482 9.22632 52.7874 9.12828C52.7265 9.02687 52.6099 8.9356 52.4375 8.85447C52.2684 8.77333 52.0183 8.69896 51.687 8.63135C51.3963 8.56712 51.1292 8.49106 50.8858 8.40317C50.6458 8.3119 50.4396 8.20203 50.2672 8.07357C50.0948 7.94512 49.9613 7.79299 49.8666 7.61721C49.772 7.44142 49.7246 7.2386 49.7246 7.00872C49.7246 6.78561 49.7737 6.57433 49.8717 6.37488C49.9697 6.17543 50.11 5.99965 50.2926 5.84753C50.4751 5.69541 50.6965 5.5754 50.9568 5.48751C51.2205 5.39961 51.5146 5.35567 51.8391 5.35567C52.2989 5.35567 52.6927 5.43342 53.0206 5.58892C53.3519 5.74104 53.6054 5.94894 53.7812 6.21262C53.957 6.47292 54.0449 6.76702 54.0449 7.09492H52.8228C52.8228 6.94956 52.7857 6.81434 52.7113 6.68927C52.6403 6.56081 52.5321 6.4577 52.3868 6.37995C52.2414 6.29882 52.0589 6.25826 51.8391 6.25826C51.6295 6.25826 51.4554 6.29206 51.3168 6.35967C51.1816 6.4239 51.0802 6.50841 51.0126 6.61321C50.9484 6.718 50.9163 6.83294 50.9163 6.95802C50.9163 7.04929 50.9332 7.13211 50.967 7.20648C51.0041 7.27747 51.065 7.34339 51.1495 7.40424C51.234 7.46171 51.349 7.51579 51.4943 7.5665C51.6431 7.61721 51.829 7.66623 52.0521 7.71355C52.4713 7.80145 52.8313 7.91469 53.1322 8.05329C53.4364 8.18851 53.6697 8.3643 53.8319 8.58065C53.9942 8.79362 54.0753 9.06406 54.0753 9.39196C54.0753 9.63536 54.0229 9.85847 53.9181 10.0613C53.8167 10.2607 53.668 10.4348 53.4719 10.5836C53.2758 10.7289 53.0409 10.8422 52.7671 10.9233C52.4966 11.0045 52.1924 11.045 51.8543 11.045C51.3574 11.045 50.9365 10.9571 50.5917 10.7813C50.2469 10.6022 49.9849 10.374 49.8058 10.0968C49.63 9.81621 49.5421 9.52549 49.5421 9.22463H50.7236C50.7371 9.45112 50.7996 9.63198 50.9112 9.7672C51.0261 9.89903 51.1681 9.99538 51.3371 10.0562C51.5095 10.1137 51.687 10.1424 51.8696 10.1424C52.0893 10.1424 52.2735 10.1137 52.4223 10.0562C52.571 9.99538 52.6842 9.91425 52.762 9.81283C52.8397 9.70804 52.8786 9.58972 52.8786 9.45788ZM54.912 8.26119V8.14456C54.912 7.74905 54.9695 7.38227 55.0844 7.04422C55.1993 6.70279 55.365 6.407 55.5813 6.15684C55.8011 5.9033 56.0681 5.70724 56.3825 5.56864C56.7003 5.42666 57.0586 5.35567 57.4575 5.35567C57.8598 5.35567 58.2181 5.42666 58.5325 5.56864C58.8502 5.70724 59.119 5.9033 59.3387 6.15684C59.5585 6.407 59.7258 6.70279 59.8407 7.04422C59.9557 7.38227 60.0131 7.74905 60.0131 8.14456V8.26119C60.0131 8.65671 59.9557 9.02349 59.8407 9.36154C59.7258 9.69959 59.5585 9.99538 59.3387 10.2489C59.119 10.4991 58.8519 10.6951 58.5376 10.8371C58.2232 10.9757 57.8665 11.045 57.4676 11.045C57.0654 11.045 56.7053 10.9757 56.3876 10.8371C56.0732 10.6951 55.8061 10.4991 55.5864 10.2489C55.3667 9.99538 55.1993 9.69959 55.0844 9.36154C54.9695 9.02349 54.912 8.65671 54.912 8.26119ZM56.134 8.14456V8.26119C56.134 8.50797 56.1594 8.74122 56.2101 8.96095C56.2608 9.18068 56.3402 9.37337 56.4484 9.53901C56.5566 9.70466 56.6952 9.83481 56.8642 9.92946C57.0332 10.0241 57.2344 10.0714 57.4676 10.0714C57.6941 10.0714 57.8902 10.0241 58.0558 9.92946C58.2249 9.83481 58.3635 9.70466 58.4716 9.53901C58.5798 9.37337 58.6593 9.18068 58.71 8.96095C58.764 8.74122 58.7911 8.50797 58.7911 8.26119V8.14456C58.7911 7.90117 58.764 7.6713 58.71 7.45495C58.6593 7.23521 58.5781 7.04084 58.4666 6.87181C58.3584 6.70279 58.2198 6.57095 58.0508 6.4763C57.8851 6.37826 57.6874 6.32925 57.4575 6.32925C57.2276 6.32925 57.0282 6.37826 56.8591 6.4763C56.6935 6.57095 56.5566 6.70279 56.4484 6.87181C56.3402 7.04084 56.2608 7.23521 56.2101 7.45495C56.1594 7.6713 56.134 7.90117 56.134 8.14456ZM62.6905 10.9436H61.4684V4.92973C61.4684 4.52069 61.5445 4.17757 61.6966 3.90037C61.8521 3.61979 62.0735 3.40851 62.3609 3.26653C62.6482 3.12117 62.988 3.04849 63.3801 3.04849C63.5018 3.04849 63.6218 3.05694 63.7401 3.07384C63.8584 3.08736 63.9734 3.10934 64.0849 3.13976L64.0545 4.08292C63.9869 4.06601 63.9125 4.05418 63.8314 4.04742C63.7536 4.04066 63.6691 4.03728 63.5779 4.03728C63.3919 4.03728 63.2314 4.07277 63.0961 4.14376C62.9643 4.21137 62.8629 4.3111 62.7919 4.44294C62.7243 4.57478 62.6905 4.73704 62.6905 4.92973V10.9436ZM63.8212 5.45708V6.34953H60.6267V5.45708H63.8212ZM67.2237 5.45708V6.34953H64.1306V5.45708H67.2237ZM65.023 4.11334H66.2451V9.42746C66.2451 9.59648 66.2687 9.72663 66.316 9.8179C66.3667 9.9058 66.436 9.96495 66.5239 9.99538C66.6118 10.0258 66.7149 10.041 66.8333 10.041C66.9178 10.041 66.9989 10.0359 67.0767 10.0258C67.1544 10.0157 67.2169 10.0055 67.2643 9.99538L67.2693 10.9284C67.1679 10.9588 67.0496 10.9859 66.9144 11.0095C66.7825 11.0332 66.6304 11.045 66.458 11.045C66.1774 11.045 65.929 10.996 65.7126 10.898C65.4963 10.7966 65.3273 10.6326 65.2056 10.4061C65.0839 10.1796 65.023 9.87875 65.023 9.50352V4.11334ZM28.2096 18.6436V19.6527H24.2899V18.6436H28.2096ZM24.6043 15.5606V22.9436H23.3315V15.5606H24.6043ZM29.1882 15.5606V22.9436H27.9205V15.5606H29.1882ZM30.3494 20.2612V20.1446C30.3494 19.749 30.4069 19.3823 30.5218 19.0442C30.6367 18.7028 30.8024 18.407 31.0187 18.1568C31.2385 17.9033 31.5055 17.7072 31.8199 17.5686C32.1377 17.4267 32.496 17.3557 32.8949 17.3557C33.2972 17.3557 33.6555 17.4267 33.9699 17.5686C34.2877 17.7072 34.5564 17.9033 34.7761 18.1568C34.9959 18.407 35.1632 18.7028 35.2781 19.0442C35.3931 19.3823 35.4505 19.749 35.4505 20.1446V20.2612C35.4505 20.6567 35.3931 21.0235 35.2781 21.3615C35.1632 21.6996 34.9959 21.9954 34.7761 22.2489C34.5564 22.4991 34.2894 22.6951 33.975 22.8371C33.6606 22.9757 33.3039 23.045 32.905 23.045C32.5028 23.045 32.1427 22.9757 31.825 22.8371C31.5106 22.6951 31.2435 22.4991 31.0238 22.2489C30.8041 21.9954 30.6367 21.6996 30.5218 21.3615C30.4069 21.0235 30.3494 20.6567 30.3494 20.2612ZM31.5714 20.1446V20.2612C31.5714 20.508 31.5968 20.7412 31.6475 20.961C31.6982 21.1807 31.7777 21.3734 31.8858 21.539C31.994 21.7047 32.1326 21.8348 32.3016 21.9295C32.4707 22.0241 32.6718 22.0714 32.905 22.0714C33.1315 22.0714 33.3276 22.0241 33.4933 21.9295C33.6623 21.8348 33.8009 21.7047 33.9091 21.539C34.0172 21.3734 34.0967 21.1807 34.1474 20.961C34.2015 20.7412 34.2285 20.508 34.2285 20.2612V20.1446C34.2285 19.9012 34.2015 19.6713 34.1474 19.4549C34.0967 19.2352 34.0155 19.0408 33.904 18.8718C33.7958 18.7028 33.6572 18.5709 33.4882 18.4763C33.3225 18.3783 33.1248 18.3292 32.8949 18.3292C32.665 18.3292 32.4656 18.3783 32.2966 18.4763C32.1309 18.5709 31.994 18.7028 31.8858 18.8718C31.7777 19.0408 31.6982 19.2352 31.6475 19.4549C31.5968 19.6713 31.5714 19.9012 31.5714 20.1446ZM37.7831 15.155V22.9436H36.556V15.155H37.7831ZM38.8885 20.2612V20.1446C38.8885 19.749 38.946 19.3823 39.0609 19.0442C39.1758 18.7028 39.3415 18.407 39.5578 18.1568C39.7776 17.9033 40.0446 17.7072 40.359 17.5686C40.6768 17.4267 41.0351 17.3557 41.434 17.3557C41.8363 17.3557 42.1946 17.4267 42.509 17.5686C42.8268 17.7072 43.0955 17.9033 43.3152 18.1568C43.535 18.407 43.7023 18.7028 43.8172 19.0442C43.9322 19.3823 43.9896 19.749 43.9896 20.1446V20.2612C43.9896 20.6567 43.9322 21.0235 43.8172 21.3615C43.7023 21.6996 43.535 21.9954 43.3152 22.2489C43.0955 22.4991 42.8285 22.6951 42.5141 22.8371C42.1997 22.9757 41.843 23.045 41.4441 23.045C41.0419 23.045 40.6818 22.9757 40.3641 22.8371C40.0497 22.6951 39.7826 22.4991 39.5629 22.2489C39.3432 21.9954 39.1758 21.6996 39.0609 21.3615C38.946 21.0235 38.8885 20.6567 38.8885 20.2612ZM40.1105 20.1446V20.2612C40.1105 20.508 40.1359 20.7412 40.1866 20.961C40.2373 21.1807 40.3168 21.3734 40.4249 21.539C40.5331 21.7047 40.6717 21.8348 40.8407 21.9295C41.0098 22.0241 41.2109 22.0714 41.4441 22.0714C41.6706 22.0714 41.8667 22.0241 42.0323 21.9295C42.2014 21.8348 42.34 21.7047 42.4481 21.539C42.5563 21.3734 42.6358 21.1807 42.6865 20.961C42.7406 20.7412 42.7676 20.508 42.7676 20.2612V20.1446C42.7676 19.9012 42.7406 19.6713 42.6865 19.4549C42.6358 19.2352 42.5546 19.0408 42.4431 18.8718C42.3349 18.7028 42.1963 18.5709 42.0273 18.4763C41.8616 18.3783 41.6639 18.3292 41.434 18.3292C41.2041 18.3292 41.0047 18.3783 40.8357 18.4763C40.67 18.5709 40.5331 18.7028 40.4249 18.8718C40.3168 19.0408 40.2373 19.2352 40.1866 19.4549C40.1359 19.6713 40.1105 19.9012 40.1105 20.1446ZM49.7601 21.9345V22.9436H46.0534V21.9345H49.7601ZM46.4084 15.5606V22.9436H45.1356V15.5606H46.4084ZM53.0409 23.045C52.6352 23.045 52.2684 22.9791 51.9405 22.8473C51.616 22.712 51.3388 22.5244 51.1089 22.2844C50.8825 22.0444 50.7084 21.7621 50.5867 21.4376C50.465 21.1131 50.4041 20.7632 50.4041 20.388V20.1851C50.4041 19.7558 50.4667 19.3671 50.5917 19.0189C50.7168 18.6707 50.8909 18.3732 51.114 18.1264C51.3371 17.8763 51.6008 17.6853 51.905 17.5534C52.2093 17.4216 52.5389 17.3557 52.8938 17.3557C53.286 17.3557 53.6291 17.4216 53.9232 17.5534C54.2173 17.6853 54.4607 17.8712 54.6534 18.1112C54.8494 18.3478 54.9948 18.6301 55.0895 18.958C55.1875 19.2859 55.2365 19.6476 55.2365 20.0431V20.5654H50.9974V19.6882H54.0297V19.5919C54.0229 19.3721 53.979 19.1659 53.8978 18.9732C53.8201 18.7805 53.7001 18.625 53.5378 18.5067C53.3756 18.3884 53.1592 18.3292 52.8888 18.3292C52.6859 18.3292 52.5051 18.3732 52.3462 18.4611C52.1907 18.5456 52.0605 18.669 51.9558 18.8312C51.851 18.9935 51.7698 19.1896 51.7124 19.4195C51.6583 19.6459 51.6312 19.9012 51.6312 20.1851V20.388C51.6312 20.628 51.6633 20.8511 51.7276 21.0573C51.7952 21.2601 51.8932 21.4376 52.0217 21.5897C52.1501 21.7418 52.3056 21.8618 52.4882 21.9497C52.6707 22.0343 52.8786 22.0765 53.1119 22.0765C53.406 22.0765 53.668 22.0174 53.8978 21.899C54.1277 21.7807 54.3272 21.6134 54.4962 21.397L55.1402 22.0207C55.0219 22.1931 54.868 22.3588 54.6787 22.5177C54.4894 22.6732 54.2579 22.7999 53.984 22.898C53.7136 22.996 53.3992 23.045 53.0409 23.045ZM57.4017 18.6284V22.9436H56.1797V17.4571H57.3307L57.4017 18.6284ZM57.1837 19.9975L56.7882 19.9924C56.7915 19.6037 56.8456 19.247 56.9504 18.9225C57.0586 18.598 57.2073 18.3191 57.3966 18.0859C57.5893 17.8526 57.8192 17.6734 58.0863 17.5484C58.3533 17.4199 58.6508 17.3557 58.9787 17.3557C59.2424 17.3557 59.4807 17.3929 59.6937 17.4672C59.91 17.5382 60.0943 17.6548 60.2464 17.8171C60.4019 17.9794 60.5202 18.1906 60.6013 18.4509C60.6825 18.7079 60.723 19.0239 60.723 19.3992V22.9436H59.4959V19.3941C59.4959 19.1304 59.457 18.9225 59.3793 18.7704C59.3049 18.6149 59.1951 18.505 59.0497 18.4408C58.9077 18.3732 58.7302 18.3394 58.5173 18.3394C58.3077 18.3394 58.1201 18.3833 57.9544 18.4712C57.7888 18.5591 57.6485 18.6791 57.5336 18.8312C57.422 18.9834 57.3358 19.1592 57.2749 19.3586C57.2141 19.5581 57.1837 19.771 57.1837 19.9975ZM65.0484 21.4579C65.0484 21.3362 65.0179 21.2263 64.9571 21.1283C64.8962 21.0269 64.7796 20.9356 64.6072 20.8545C64.4382 20.7733 64.188 20.699 63.8567 20.6314C63.566 20.5671 63.299 20.4911 63.0556 20.4032C62.8156 20.3119 62.6093 20.202 62.4369 20.0736C62.2645 19.9451 62.131 19.793 62.0364 19.6172C61.9417 19.4414 61.8944 19.2386 61.8944 19.0087C61.8944 18.7856 61.9434 18.5743 62.0414 18.3749C62.1395 18.1754 62.2797 17.9996 62.4623 17.8475C62.6448 17.6954 62.8663 17.5754 63.1266 17.4875C63.3902 17.3996 63.6843 17.3557 64.0089 17.3557C64.4686 17.3557 64.8624 17.4334 65.1903 17.5889C65.5216 17.741 65.7752 17.9489 65.951 18.2126C66.1267 18.4729 66.2146 18.767 66.2146 19.0949H64.9926C64.9926 18.9496 64.9554 18.8143 64.881 18.6893C64.81 18.5608 64.7019 18.4577 64.5565 18.38C64.4111 18.2988 64.2286 18.2583 64.0089 18.2583C63.7993 18.2583 63.6252 18.2921 63.4866 18.3597C63.3514 18.4239 63.2499 18.5084 63.1823 18.6132C63.1181 18.718 63.086 18.8329 63.086 18.958C63.086 19.0493 63.1029 19.1321 63.1367 19.2065C63.1739 19.2775 63.2347 19.3434 63.3192 19.4042C63.4038 19.4617 63.5187 19.5158 63.6641 19.5665C63.8128 19.6172 63.9987 19.6662 64.2218 19.7136C64.641 19.8014 65.001 19.9147 65.3019 20.0533C65.6061 20.1885 65.8394 20.3643 66.0017 20.5806C66.1639 20.7936 66.2451 21.0641 66.2451 21.392C66.2451 21.6354 66.1927 21.8585 66.0879 22.0613C65.9864 22.2607 65.8377 22.4348 65.6416 22.5836C65.4456 22.7289 65.2106 22.8422 64.9368 22.9233C64.6664 23.0045 64.3621 23.045 64.0241 23.045C63.5271 23.045 63.1063 22.9571 62.7615 22.7813C62.4167 22.6022 62.1547 22.374 61.9755 22.0968C61.7997 21.8162 61.7118 21.5255 61.7118 21.2246H62.8933C62.9068 21.4511 62.9694 21.632 63.0809 21.7672C63.1959 21.899 63.3378 21.9954 63.5069 22.0562C63.6793 22.1137 63.8567 22.1424 64.0393 22.1424C64.259 22.1424 64.4433 22.1137 64.592 22.0562C64.7407 21.9954 64.854 21.9142 64.9317 21.8128C65.0095 21.708 65.0484 21.5897 65.0484 21.4579Z" fill="black"/>
</svg>
