<svg width="83" height="21" viewBox="0 0 83 21" fill="none" xmlns="http://www.w3.org/2000/svg">
<path d="M25.8773 13.4587C25.433 13.7662 24.9371 13.9527 24.4049 14.0375C23.8728 14.1224 23.3449 14.1057 22.8141 14.1057H11.847C11.3149 14.1057 10.7856 14.1252 10.252 14.0375C9.72437 13.9559 9.22146 13.7582 8.77963 13.4587C8.33948 13.1552 7.97945 12.7498 7.73031 12.2771C7.48118 11.8044 7.35035 11.2784 7.34901 10.7442C7.34901 9.63672 7.8881 8.63634 8.78241 8.03111C9.21982 7.71805 9.7213 7.53161 10.2437 7.44674C10.766 7.36187 11.2884 7.36187 11.8331 7.36187H22.803C23.3254 7.36187 23.8686 7.34239 24.391 7.42587C24.9134 7.50935 25.4149 7.69579 25.8551 7.98937C26.2961 8.2906 26.6563 8.69541 26.9041 9.16824C27.1518 9.64107 27.2795 10.1674 27.2759 10.7011C27.2759 11.7863 26.7313 12.7881 25.8342 13.4142L25.8773 13.4587ZM30.2987 2.94713C29.1298 2.01045 27.7663 1.34596 26.3078 1.00203C25.4753 0.807036 24.6246 0.699779 23.7697 0.682018C23.1443 0.661148 22.5174 0.668105 21.8697 0.668105H12.8179C12.1813 0.668105 11.5433 0.661148 10.9067 0.682018C10.0505 0.70082 9.1986 0.808061 8.36451 1.00203C6.90611 1.34789 5.54291 2.01323 4.37356 2.94991C3.20108 3.88423 2.25438 5.07034 1.60374 6.42017C0.953095 7.77001 0.615233 9.24889 0.615234 10.747C0.615234 13.7829 1.99431 16.6477 4.36102 18.5469C5.53117 19.4823 6.89407 20.1475 8.35197 20.4948C9.18494 20.6896 10.0361 20.7964 10.8914 20.8134C11.5183 20.8357 12.1451 20.8301 12.7929 20.8301H21.8418C22.4673 20.8301 23.115 20.8357 23.7419 20.8134C24.5931 20.7972 25.4402 20.6904 26.2688 20.4948C27.7261 20.1434 29.0888 19.4775 30.2611 18.5441C31.4421 17.6156 32.3965 16.4313 33.0524 15.0807C33.7083 13.73 34.0485 12.2482 34.0473 10.747C34.0473 7.71249 32.6682 4.84632 30.2987 2.94713Z" fill="black"/>
<path d="M45.1751 11.678C45.1751 12.4947 44.9909 13.2168 44.6224 13.8443C44.2638 14.4618 43.7758 14.9449 43.1582 15.2935C42.5507 15.6421 41.8684 15.8164 41.1115 15.8164C40.3545 15.8164 39.6673 15.6421 39.0497 15.2935C38.4422 14.9449 37.9542 14.4618 37.5856 13.8443C37.2271 13.2168 37.0478 12.4947 37.0478 11.678C37.0478 10.8613 37.2271 10.1442 37.5856 9.52667C37.9542 8.89919 38.4422 8.41115 39.0497 8.06255C39.6673 7.70399 40.3545 7.52471 41.1115 7.52471C41.8684 7.52471 42.5507 7.70399 43.1582 8.06255C43.7758 8.41115 44.2638 8.89919 44.6224 9.52667C44.9909 10.1442 45.1751 10.8613 45.1751 11.678ZM43.3823 11.678C43.3823 11.1701 43.2778 10.7318 43.0686 10.3633C42.8694 9.98483 42.5955 9.69101 42.2469 9.48185C41.9083 9.27269 41.5298 9.16811 41.1115 9.16811C40.6931 9.16811 40.3097 9.27269 39.9611 9.48185C39.6224 9.69101 39.3485 9.98483 39.1394 10.3633C38.9402 10.7318 38.8406 11.1701 38.8406 11.678C38.8406 12.176 38.9402 12.6143 39.1394 12.9927C39.3485 13.3613 39.6224 13.6501 39.9611 13.8593C40.3097 14.0684 40.6931 14.173 41.1115 14.173C41.5298 14.173 41.9083 14.0684 42.2469 13.8593C42.5955 13.6501 42.8694 13.3613 43.0686 12.9927C43.2778 12.6143 43.3823 12.176 43.3823 11.678ZM50.2999 7.52471C50.8676 7.52471 51.3606 7.58447 51.7789 7.70399C52.2072 7.82351 52.5359 7.99283 52.765 8.21195C53.004 8.42111 53.1235 8.67509 53.1235 8.97389C53.1235 9.17309 53.0638 9.36233 52.9443 9.54161C52.8247 9.71093 52.6504 9.79559 52.4214 9.79559C52.262 9.79559 52.1275 9.77567 52.018 9.73583C51.9184 9.68603 51.8287 9.62627 51.7491 9.55655C51.6694 9.48683 51.5748 9.42209 51.4652 9.36233C51.3656 9.30257 51.2112 9.25775 51.0021 9.22787C50.8029 9.18803 50.6535 9.16811 50.5539 9.16811C50.0459 9.16811 49.6127 9.27767 49.2541 9.49679C48.9055 9.71591 48.6366 10.0147 48.4473 10.3932C48.2581 10.7617 48.1635 11.19 48.1635 11.678C48.1635 12.1561 48.2581 12.5844 48.4473 12.9629C48.6465 13.3314 48.9155 13.6252 49.2541 13.8443C49.6027 14.0634 50.0011 14.173 50.4493 14.173C50.6983 14.173 50.9124 14.1581 51.0917 14.1282C51.271 14.0983 51.4204 14.0535 51.5399 13.9937C51.6793 13.914 51.8038 13.8294 51.9134 13.7397C52.023 13.6501 52.1873 13.6053 52.4064 13.6053C52.6654 13.6053 52.8646 13.6899 53.004 13.8593C53.1435 14.0186 53.2132 14.2178 53.2132 14.4569C53.2132 14.7059 53.0737 14.9349 52.7949 15.1441C52.516 15.3433 52.1475 15.5076 51.6893 15.6371C51.2411 15.7566 50.7531 15.8164 50.2252 15.8164C49.4384 15.8164 48.7561 15.6371 48.1784 15.2786C47.6007 14.91 47.1525 14.412 46.8338 13.7846C46.5251 13.1571 46.3707 12.4549 46.3707 11.678C46.3707 10.8613 46.535 10.1442 46.8637 9.52667C47.2023 8.89919 47.6655 8.41115 48.2531 8.06255C48.8507 7.70399 49.533 7.52471 50.2999 7.52471ZM60.4371 7.67411C60.6961 7.67411 60.9102 7.76375 61.0795 7.94303C61.2489 8.11235 61.3335 8.32649 61.3335 8.58545V12.3802C61.3335 13.436 61.0397 14.2726 60.4521 14.8901C59.8644 15.5076 59.0178 15.8164 57.9123 15.8164C56.8067 15.8164 55.9601 15.5076 55.3725 14.8901C54.7948 14.2726 54.506 13.436 54.506 12.3802V8.58545C54.506 8.32649 54.5906 8.11235 54.7599 7.94303C54.9293 7.76375 55.1434 7.67411 55.4024 7.67411C55.6613 7.67411 55.8755 7.76375 56.0448 7.94303C56.2141 8.11235 56.2988 8.32649 56.2988 8.58545V12.3802C56.2988 12.9878 56.4332 13.4409 56.7021 13.7397C56.971 14.0286 57.3744 14.173 57.9123 14.173C58.4601 14.173 58.8684 14.0286 59.1373 13.7397C59.4063 13.4409 59.5407 12.9878 59.5407 12.3802V8.58545C59.5407 8.32649 59.6254 8.11235 59.7947 7.94303C59.964 7.76375 60.1782 7.67411 60.4371 7.67411ZM65.2166 14.7557C65.2166 15.0146 65.127 15.2337 64.9477 15.413C64.7784 15.5823 64.5642 15.667 64.3053 15.667C64.0563 15.667 63.8471 15.5823 63.6778 15.413C63.5085 15.2337 63.4238 15.0146 63.4238 14.7557V5.52276C63.4238 5.2638 63.5085 5.04966 63.6778 4.88034C63.8571 4.70106 64.0762 4.61142 64.3352 4.61142C64.5941 4.61142 64.8033 4.70106 64.9626 4.88034C65.132 5.04966 65.2166 5.2638 65.2166 5.52276V14.7557ZM73.1594 7.67411C73.4184 7.67411 73.6325 7.76375 73.8019 7.94303C73.9712 8.11235 74.0558 8.32649 74.0558 8.58545V12.3802C74.0558 13.436 73.762 14.2726 73.1744 14.8901C72.5867 15.5076 71.7401 15.8164 70.6346 15.8164C69.529 15.8164 68.6824 15.5076 68.0948 14.8901C67.5171 14.2726 67.2283 13.436 67.2283 12.3802V8.58545C67.2283 8.32649 67.3129 8.11235 67.4822 7.94303C67.6516 7.76375 67.8657 7.67411 68.1247 7.67411C68.3836 7.67411 68.5978 7.76375 68.7671 7.94303C68.9364 8.11235 69.0211 8.32649 69.0211 8.58545V12.3802C69.0211 12.9878 69.1555 13.4409 69.4244 13.7397C69.6934 14.0286 70.0967 14.173 70.6346 14.173C71.1824 14.173 71.5907 14.0286 71.8597 13.7397C72.1286 13.4409 72.263 12.9878 72.263 12.3802V8.58545C72.263 8.32649 72.3477 8.11235 72.517 7.94303C72.6863 7.76375 72.9005 7.67411 73.1594 7.67411ZM75.5336 14.427C75.434 14.2875 75.3892 14.1083 75.3991 13.8891C75.4091 13.67 75.5386 13.4808 75.7876 13.3214C75.9469 13.2218 76.1163 13.182 76.2955 13.2019C76.4748 13.2119 76.6491 13.3015 76.8184 13.4708C77.1073 13.7597 77.4111 13.9838 77.7298 14.1431C78.0485 14.3025 78.4469 14.3822 78.925 14.3822C79.0744 14.3722 79.2387 14.3523 79.418 14.3224C79.5973 14.2826 79.7517 14.2029 79.8811 14.0834C80.0206 13.9539 80.0903 13.7597 80.0903 13.5007C80.0903 13.2816 80.0156 13.1073 79.8662 12.9778C79.7168 12.8483 79.5176 12.7388 79.2686 12.6491C79.0296 12.5595 78.7606 12.4748 78.4618 12.3951C78.1531 12.3055 77.8344 12.2059 77.5057 12.0963C77.187 11.9868 76.8931 11.8473 76.6242 11.678C76.3553 11.4987 76.1362 11.2647 75.9669 10.9758C75.7975 10.687 75.7129 10.3235 75.7129 9.88523C75.7129 9.38723 75.8523 8.96393 76.1312 8.61533C76.4101 8.26673 76.7686 7.99781 77.2069 7.80857C77.6551 7.61933 78.1232 7.52471 78.6112 7.52471C78.92 7.52471 79.2437 7.56455 79.5823 7.64423C79.921 7.71395 80.2447 7.83347 80.5534 8.00279C80.8622 8.16215 81.1211 8.37629 81.3303 8.64521C81.4399 8.79461 81.5046 8.97389 81.5245 9.18305C81.5444 9.39221 81.4498 9.58145 81.2407 9.75077C81.0913 9.87029 80.917 9.92507 80.7178 9.91511C80.5186 9.89519 80.3542 9.82547 80.2247 9.70595C80.0554 9.48683 79.8264 9.31253 79.5375 9.18305C79.2586 9.05357 78.9349 8.98883 78.5664 8.98883C78.417 8.98883 78.2527 9.00875 78.0734 9.04859C77.9041 9.07847 77.7547 9.15317 77.6252 9.27269C77.4957 9.38225 77.431 9.56153 77.431 9.81053C77.431 10.0396 77.5057 10.2239 77.6551 10.3633C77.8045 10.4928 78.0037 10.6023 78.2527 10.692C78.5116 10.7717 78.7855 10.8513 79.0744 10.931C79.3732 11.0107 79.677 11.1053 79.9857 11.2149C80.2945 11.3244 80.5783 11.4689 80.8373 11.6481C81.0962 11.8274 81.3054 12.0615 81.4648 12.3503C81.6241 12.6292 81.7038 12.9878 81.7038 13.426C81.7038 13.934 81.5544 14.3672 81.2556 14.7258C80.9568 15.0843 80.5833 15.3582 80.1351 15.5475C79.6869 15.7268 79.2288 15.8164 78.7606 15.8164C78.173 15.8164 77.5854 15.7168 76.9977 15.5176C76.4101 15.3084 75.922 14.9449 75.5336 14.427Z" fill="black"/>
</svg>
