<svg width="1339" height="414" viewBox="0 0 1339 414" fill="none" xmlns="http://www.w3.org/2000/svg">
<path d="M1493.37 -67.7729C1436.97 -48.5784 1325.74 35.0245 1332 215.88C1339.82 441.949 1510.44 583.419 1553.09 796.692C1584.57 954.103 1580.1 1348.36 1388.16 1514" stroke="url(#paint0_linear_512_833)" stroke-width="7.78561"/>
<path d="M1404.37 -55.2207C1347.97 -36.0262 1236.73 47.5767 1242.99 228.432C1250.81 454.501 1421.43 595.972 1464.08 809.244C1495.57 966.655 1491.1 1360.91 1299.15 1526.55" stroke="url(#paint1_linear_512_833)" stroke-width="7.78561"/>
<path d="M1314.67 -49.4292C1258.27 -30.2347 1147.03 53.3682 1153.29 234.223C1161.11 460.292 1331.73 601.763 1374.38 815.036C1405.87 972.447 1401.4 1366.7 1209.45 1532.34" stroke="url(#paint2_linear_512_833)" stroke-width="7.78561"/>
<path d="M1224.81 -51.7852C1168.41 -32.5906 1057.18 51.0122 1063.43 231.867C1071.25 457.936 1241.87 599.407 1284.53 812.68C1316.01 970.091 1311.54 1364.34 1119.6 1529.99" stroke="url(#paint3_linear_512_833)" stroke-width="7.78561"/>
<path d="M1135.74 -63.8916C1079.34 -44.6971 968.109 38.9058 974.365 219.761C982.185 445.83 1152.8 587.301 1195.46 800.573C1226.94 957.985 1222.47 1352.24 1030.53 1517.88" stroke="url(#paint4_linear_512_833)" stroke-width="7.78561"/>
<path d="M1048.98 -87.3784C992.577 -68.1839 881.344 15.419 887.6 196.274C895.42 422.343 1066.04 563.814 1108.69 777.087C1140.17 934.498 1135.71 1328.75 943.762 1494.39" stroke="url(#paint5_linear_512_833)" stroke-width="7.78561"/>
<path d="M951.734 -129.819C895.335 -110.625 784.102 -27.0219 790.358 153.833C798.178 379.902 968.796 521.373 1011.45 734.646C1042.93 892.057 1038.46 1286.31 846.52 1451.95" stroke="url(#paint6_linear_512_833)" stroke-width="7.78561"/>
<path d="M868.419 -163.559C812.021 -144.365 700.787 -60.7617 707.043 120.093C714.863 346.162 885.481 487.633 928.136 700.906C959.618 858.317 955.15 1252.57 763.205 1418.21" stroke="url(#paint7_linear_512_833)" stroke-width="7.78561"/>
<path d="M782.602 -190.3C726.203 -171.105 614.97 -87.5024 621.226 93.3528C629.046 319.422 799.664 460.893 842.318 674.165C873.801 831.576 869.333 1225.83 677.388 1391.47" stroke="url(#paint8_linear_512_833)" stroke-width="7.78561"/>
<path d="M694.873 -209.877C638.474 -190.682 527.24 -107.08 533.496 73.7756C541.316 299.845 711.934 441.315 754.589 654.588C786.071 811.999 781.604 1206.25 589.658 1371.89" stroke="url(#paint9_linear_512_833)" stroke-width="7.78561"/>
<path d="M605.846 -222.293C549.447 -203.098 438.214 -119.496 444.47 61.3596C452.29 287.429 622.908 428.899 665.563 642.172C697.045 799.583 692.577 1193.84 500.632 1359.48" stroke="url(#paint10_linear_512_833)" stroke-width="7.78561"/>
<path d="M516.123 -227.703C459.724 -208.509 348.49 -124.906 354.746 55.9495C362.566 282.018 533.184 423.489 575.839 636.762C607.321 794.173 602.854 1188.43 410.908 1354.07" stroke="url(#paint11_linear_512_833)" stroke-width="7.78561"/>
<path d="M426.245 -226.386C369.846 -207.191 258.612 -123.588 264.868 57.2668C272.688 283.336 443.307 424.807 485.961 638.079C517.443 795.49 512.976 1189.74 321.03 1355.39" stroke="url(#paint12_linear_512_833)" stroke-width="7.78561"/>
<path d="M336.687 -218.695C280.288 -199.501 169.055 -115.898 175.311 64.9573C183.131 291.026 353.749 432.497 396.403 645.77C427.886 803.181 423.418 1197.43 231.473 1363.08" stroke="url(#paint13_linear_512_833)" stroke-width="7.78561"/>
<path d="M247.846 -205.025C191.447 -185.831 80.214 -102.228 86.47 78.6272C94.29 304.696 264.908 446.167 307.563 659.44C339.045 816.851 334.577 1211.1 142.632 1376.75" stroke="url(#paint14_linear_512_833)" stroke-width="7.78561"/>
<path d="M160.044 -185.771C103.646 -166.576 -7.58777 -82.9731 -1.33177 97.8821C6.48822 323.951 177.106 465.422 219.761 678.694C251.243 836.106 246.775 1230.36 54.83 1396" stroke="url(#paint15_linear_512_833)" stroke-width="7.78561"/>
<path d="M73.5543 -161.293C17.1555 -142.098 -94.078 -58.4956 -87.822 122.36C-80.002 348.429 90.6161 489.899 133.271 703.172C164.753 860.583 160.285 1254.84 -31.6602 1420.48" stroke="url(#paint16_linear_512_833)" stroke-width="7.78561"/>
<path d="M-11.3706 -131.899C-67.7693 -112.705 -179.003 -29.102 -172.747 151.753C-164.927 377.822 5.6913 519.293 48.3458 732.566C79.828 889.977 75.3603 1284.23 -116.585 1449.87" stroke="url(#paint17_linear_512_833)" stroke-width="7.78561"/>
<defs>
<linearGradient id="paint0_linear_512_833" x1="1449.75" y1="-67.7729" x2="1449.75" y2="1514" gradientUnits="userSpaceOnUse">
<stop stop-color="white" stop-opacity="0"/>
<stop offset="1" stop-color="white"/>
</linearGradient>
<linearGradient id="paint1_linear_512_833" x1="1360.74" y1="-55.2207" x2="1360.74" y2="1526.55" gradientUnits="userSpaceOnUse">
<stop stop-color="white" stop-opacity="0"/>
<stop offset="1" stop-color="white"/>
</linearGradient>
<linearGradient id="paint2_linear_512_833" x1="1271.04" y1="-49.4292" x2="1271.04" y2="1532.34" gradientUnits="userSpaceOnUse">
<stop stop-color="white" stop-opacity="0"/>
<stop offset="1" stop-color="white"/>
</linearGradient>
<linearGradient id="paint3_linear_512_833" x1="1181.19" y1="-51.7852" x2="1181.19" y2="1529.99" gradientUnits="userSpaceOnUse">
<stop stop-color="white" stop-opacity="0"/>
<stop offset="1" stop-color="white"/>
</linearGradient>
<linearGradient id="paint4_linear_512_833" x1="1092.12" y1="-63.8916" x2="1092.12" y2="1517.88" gradientUnits="userSpaceOnUse">
<stop stop-color="white" stop-opacity="0"/>
<stop offset="1" stop-color="white"/>
</linearGradient>
<linearGradient id="paint5_linear_512_833" x1="1005.35" y1="-87.3784" x2="1005.35" y2="1494.39" gradientUnits="userSpaceOnUse">
<stop stop-color="white" stop-opacity="0"/>
<stop offset="1" stop-color="white"/>
</linearGradient>
<linearGradient id="paint6_linear_512_833" x1="908.11" y1="-129.819" x2="908.11" y2="1451.95" gradientUnits="userSpaceOnUse">
<stop stop-color="white" stop-opacity="0"/>
<stop offset="1" stop-color="white"/>
</linearGradient>
<linearGradient id="paint7_linear_512_833" x1="824.796" y1="-163.559" x2="824.796" y2="1418.21" gradientUnits="userSpaceOnUse">
<stop stop-color="white" stop-opacity="0"/>
<stop offset="1" stop-color="white"/>
</linearGradient>
<linearGradient id="paint8_linear_512_833" x1="738.979" y1="-190.3" x2="738.979" y2="1391.47" gradientUnits="userSpaceOnUse">
<stop stop-color="white" stop-opacity="0"/>
<stop offset="1" stop-color="white"/>
</linearGradient>
<linearGradient id="paint9_linear_512_833" x1="651.249" y1="-209.877" x2="651.249" y2="1371.89" gradientUnits="userSpaceOnUse">
<stop stop-color="white" stop-opacity="0"/>
<stop offset="1" stop-color="white"/>
</linearGradient>
<linearGradient id="paint10_linear_512_833" x1="562.223" y1="-222.293" x2="562.223" y2="1359.48" gradientUnits="userSpaceOnUse">
<stop stop-color="white" stop-opacity="0"/>
<stop offset="1" stop-color="white"/>
</linearGradient>
<linearGradient id="paint11_linear_512_833" x1="472.499" y1="-227.703" x2="472.499" y2="1354.07" gradientUnits="userSpaceOnUse">
<stop stop-color="white" stop-opacity="0"/>
<stop offset="1" stop-color="white"/>
</linearGradient>
<linearGradient id="paint12_linear_512_833" x1="382.621" y1="-226.386" x2="382.621" y2="1355.39" gradientUnits="userSpaceOnUse">
<stop stop-color="white" stop-opacity="0"/>
<stop offset="1" stop-color="white"/>
</linearGradient>
<linearGradient id="paint13_linear_512_833" x1="293.064" y1="-218.695" x2="293.064" y2="1363.08" gradientUnits="userSpaceOnUse">
<stop stop-color="white" stop-opacity="0"/>
<stop offset="1" stop-color="white"/>
</linearGradient>
<linearGradient id="paint14_linear_512_833" x1="204.223" y1="-205.025" x2="204.223" y2="1376.75" gradientUnits="userSpaceOnUse">
<stop stop-color="white" stop-opacity="0"/>
<stop offset="1" stop-color="white"/>
</linearGradient>
<linearGradient id="paint15_linear_512_833" x1="116.421" y1="-185.771" x2="116.421" y2="1396" gradientUnits="userSpaceOnUse">
<stop stop-color="white" stop-opacity="0"/>
<stop offset="1" stop-color="white"/>
</linearGradient>
<linearGradient id="paint16_linear_512_833" x1="29.9307" y1="-161.293" x2="29.9307" y2="1420.48" gradientUnits="userSpaceOnUse">
<stop stop-color="white" stop-opacity="0"/>
<stop offset="1" stop-color="white"/>
</linearGradient>
<linearGradient id="paint17_linear_512_833" x1="-54.9941" y1="-131.899" x2="-54.9941" y2="1449.87" gradientUnits="userSpaceOnUse">
<stop stop-color="white" stop-opacity="0"/>
<stop offset="1" stop-color="white"/>
</linearGradient>
</defs>
</svg>
