<svg width="343" height="167" viewBox="0 0 343 167" fill="none" xmlns="http://www.w3.org/2000/svg">
<path d="M365.721 -14.3804C351.034 -9.38179 322.067 12.3898 323.696 59.4875C325.732 118.36 370.164 155.201 381.272 210.741C389.471 251.733 388.307 354.404 338.321 397.539" stroke="url(#paint0_linear_512_1353)" stroke-width="2.0275"/>
<path d="M342.362 -12.8721C327.674 -7.87349 298.707 13.8981 300.336 60.9958C302.373 119.868 346.805 156.709 357.913 212.249C366.111 253.241 364.948 355.912 314.962 399.048" stroke="url(#paint1_linear_512_1353)" stroke-width="2.0275"/>
<path d="M318.961 -13.4858C304.274 -8.48726 275.307 13.2843 276.936 60.382C278.973 119.254 323.404 156.096 334.512 211.635C342.711 252.628 341.547 355.298 291.562 398.434" stroke="url(#paint2_linear_512_1353)" stroke-width="2.0275"/>
<path d="M295.767 -16.6384C281.08 -11.6399 252.113 10.1317 253.742 57.2294C255.778 116.102 300.21 152.943 311.318 208.483C319.516 249.475 318.353 352.145 268.367 395.281" stroke="url(#paint3_linear_512_1353)" stroke-width="2.0275"/>
<path d="M273.171 -22.7546C258.484 -17.7561 229.517 4.01552 231.146 51.1132C233.182 109.985 277.614 146.827 288.722 202.366C296.921 243.359 295.757 346.029 245.771 389.165" stroke="url(#paint4_linear_512_1353)" stroke-width="2.0275"/>
<path d="M247.848 -33.8071C233.161 -28.8086 204.194 -7.03697 205.823 40.0607C207.859 98.9329 252.291 135.774 263.399 191.314C271.597 232.306 270.434 334.977 220.448 378.113" stroke="url(#paint5_linear_512_1353)" stroke-width="2.0275"/>
<path d="M226.152 -42.5935C211.464 -37.5949 182.497 -15.8233 184.126 31.2744C186.163 90.1465 230.595 126.988 241.703 182.528C249.901 223.52 248.738 326.19 198.752 369.326" stroke="url(#paint6_linear_512_1353)" stroke-width="2.0275"/>
<path d="M203.803 -49.5574C189.116 -44.5588 160.149 -22.7872 161.778 24.3105C163.814 83.1826 208.246 120.024 219.354 175.564C227.553 216.556 226.389 319.227 176.403 362.362" stroke="url(#paint7_linear_512_1353)" stroke-width="2.0275"/>
<path d="M180.957 -54.6555C166.27 -49.6569 137.303 -27.8854 138.932 19.2123C140.969 78.0845 185.4 114.926 196.508 170.466C204.707 211.458 203.543 314.128 153.558 357.264" stroke="url(#paint8_linear_512_1353)" stroke-width="2.0275"/>
<path d="M157.773 -57.8887C143.085 -52.8901 114.118 -31.1185 115.748 15.9792C117.784 74.8513 162.216 111.693 173.324 167.232C181.522 208.225 180.359 310.895 130.373 354.031" stroke="url(#paint9_linear_512_1353)" stroke-width="2.0275"/>
<path d="M134.407 -59.2976C119.72 -54.299 90.7532 -32.5275 92.3823 14.5702C94.4188 73.4424 138.851 110.284 149.959 165.823C158.157 206.816 156.994 309.486 107.008 352.622" stroke="url(#paint10_linear_512_1353)" stroke-width="2.0275"/>
<path d="M111.001 -58.9546C96.314 -53.956 67.3469 -32.1844 68.9761 14.9133C71.0125 73.7854 115.444 110.627 126.552 166.166C134.751 207.159 133.587 309.829 83.6016 352.965" stroke="url(#paint11_linear_512_1353)" stroke-width="2.0275"/>
<path d="M87.6799 -56.9519C72.9927 -51.9533 44.0256 -30.1817 45.6548 16.916C47.6913 75.7881 92.1231 112.629 103.231 168.169C111.43 209.162 110.266 311.832 60.2803 354.968" stroke="url(#paint12_linear_512_1353)" stroke-width="2.0275"/>
<path d="M64.5431 -53.3921C49.856 -48.3935 20.8889 -26.6219 22.5181 20.4758C24.5545 79.3479 68.9863 116.189 80.0943 171.729C88.2928 212.721 87.1293 315.392 37.1436 358.528" stroke="url(#paint13_linear_512_1353)" stroke-width="2.0275"/>
<path d="M41.6789 -48.3777C26.9917 -43.3791 -1.97534 -21.6075 -0.346175 25.4902C1.69028 84.3623 46.1221 121.204 57.23 176.743C65.4285 217.736 64.2651 320.406 14.2793 363.542" stroke="url(#paint14_linear_512_1353)" stroke-width="2.0275"/>
<path d="M19.1555 -42.0034C4.46828 -37.0048 -24.4988 -15.2333 -22.8696 31.8644C-20.8332 90.7366 23.5986 127.578 34.7066 183.118C42.9051 224.11 41.7416 326.78 -8.24414 369.916" stroke="url(#paint15_linear_512_1353)" stroke-width="2.0275"/>
<path d="M-2.96076 -34.3489C-17.6479 -29.3503 -46.615 -7.57872 -44.9858 39.519C-42.9494 98.3911 1.48243 135.232 12.5904 190.772C20.7889 231.765 19.6254 334.435 -30.3603 377.571" stroke="url(#paint16_linear_512_1353)" stroke-width="2.0275"/>
<defs>
<linearGradient id="paint0_linear_512_1353" x1="354.361" y1="-14.3804" x2="354.361" y2="397.539" gradientUnits="userSpaceOnUse">
<stop stop-color="white" stop-opacity="0"/>
<stop offset="1" stop-color="white"/>
</linearGradient>
<linearGradient id="paint1_linear_512_1353" x1="331.001" y1="-12.8721" x2="331.001" y2="399.048" gradientUnits="userSpaceOnUse">
<stop stop-color="white" stop-opacity="0"/>
<stop offset="1" stop-color="white"/>
</linearGradient>
<linearGradient id="paint2_linear_512_1353" x1="307.601" y1="-13.4858" x2="307.601" y2="398.434" gradientUnits="userSpaceOnUse">
<stop stop-color="white" stop-opacity="0"/>
<stop offset="1" stop-color="white"/>
</linearGradient>
<linearGradient id="paint3_linear_512_1353" x1="284.406" y1="-16.6384" x2="284.406" y2="395.281" gradientUnits="userSpaceOnUse">
<stop stop-color="white" stop-opacity="0"/>
<stop offset="1" stop-color="white"/>
</linearGradient>
<linearGradient id="paint4_linear_512_1353" x1="261.811" y1="-22.7546" x2="261.811" y2="389.165" gradientUnits="userSpaceOnUse">
<stop stop-color="white" stop-opacity="0"/>
<stop offset="1" stop-color="white"/>
</linearGradient>
<linearGradient id="paint5_linear_512_1353" x1="236.488" y1="-33.8071" x2="236.488" y2="378.113" gradientUnits="userSpaceOnUse">
<stop stop-color="white" stop-opacity="0"/>
<stop offset="1" stop-color="white"/>
</linearGradient>
<linearGradient id="paint6_linear_512_1353" x1="214.791" y1="-42.5935" x2="214.791" y2="369.326" gradientUnits="userSpaceOnUse">
<stop stop-color="white" stop-opacity="0"/>
<stop offset="1" stop-color="white"/>
</linearGradient>
<linearGradient id="paint7_linear_512_1353" x1="192.443" y1="-49.5574" x2="192.443" y2="362.362" gradientUnits="userSpaceOnUse">
<stop stop-color="white" stop-opacity="0"/>
<stop offset="1" stop-color="white"/>
</linearGradient>
<linearGradient id="paint8_linear_512_1353" x1="169.597" y1="-54.6555" x2="169.597" y2="357.264" gradientUnits="userSpaceOnUse">
<stop stop-color="white" stop-opacity="0"/>
<stop offset="1" stop-color="white"/>
</linearGradient>
<linearGradient id="paint9_linear_512_1353" x1="146.412" y1="-57.8887" x2="146.412" y2="354.031" gradientUnits="userSpaceOnUse">
<stop stop-color="white" stop-opacity="0"/>
<stop offset="1" stop-color="white"/>
</linearGradient>
<linearGradient id="paint10_linear_512_1353" x1="123.047" y1="-59.2976" x2="123.047" y2="352.622" gradientUnits="userSpaceOnUse">
<stop stop-color="white" stop-opacity="0"/>
<stop offset="1" stop-color="white"/>
</linearGradient>
<linearGradient id="paint11_linear_512_1353" x1="99.6409" y1="-58.9546" x2="99.6409" y2="352.965" gradientUnits="userSpaceOnUse">
<stop stop-color="white" stop-opacity="0"/>
<stop offset="1" stop-color="white"/>
</linearGradient>
<linearGradient id="paint12_linear_512_1353" x1="76.3196" y1="-56.9519" x2="76.3196" y2="354.968" gradientUnits="userSpaceOnUse">
<stop stop-color="white" stop-opacity="0"/>
<stop offset="1" stop-color="white"/>
</linearGradient>
<linearGradient id="paint13_linear_512_1353" x1="53.1829" y1="-53.3921" x2="53.1829" y2="358.528" gradientUnits="userSpaceOnUse">
<stop stop-color="white" stop-opacity="0"/>
<stop offset="1" stop-color="white"/>
</linearGradient>
<linearGradient id="paint14_linear_512_1353" x1="30.3186" y1="-48.3777" x2="30.3186" y2="363.542" gradientUnits="userSpaceOnUse">
<stop stop-color="white" stop-opacity="0"/>
<stop offset="1" stop-color="white"/>
</linearGradient>
<linearGradient id="paint15_linear_512_1353" x1="7.79516" y1="-42.0034" x2="7.79516" y2="369.916" gradientUnits="userSpaceOnUse">
<stop stop-color="white" stop-opacity="0"/>
<stop offset="1" stop-color="white"/>
</linearGradient>
<linearGradient id="paint16_linear_512_1353" x1="-14.3211" y1="-34.3489" x2="-14.3211" y2="377.571" gradientUnits="userSpaceOnUse">
<stop stop-color="white" stop-opacity="0"/>
<stop offset="1" stop-color="white"/>
</linearGradient>
</defs>
</svg>
