<svg width="81" height="31" viewBox="0 0 81 31" fill="none" xmlns="http://www.w3.org/2000/svg">
<g clip-path="url(#clip0_512_1343)">
<path d="M12.5235 7.78496L6.2609 4.16954L0 7.78496L0 4.16954L6.26185 0.553955L12.5245 4.16954V7.78496H12.5235Z" fill="#5A5A5A"/>
<path d="M0 10.8212H3.28019V18.7911C3.28019 20.8504 4.81786 21.854 6.26185 21.854C7.71828 21.854 9.2443 20.8236 9.2443 18.7636V10.8213H12.5245V18.981C12.5245 20.878 11.9281 22.3417 10.7355 23.3453C9.54204 24.3484 8.0516 24.8366 6.23414 24.8366C4.41841 24.8366 2.92718 24.3491 1.7622 23.3455C0.596269 22.3423 0 20.9331 0 19.062L0 10.8212ZM40.8829 20.7265C39.89 21.6108 38.7589 22.0439 37.4691 22.0439C35.116 22.0439 33.5381 20.7033 33.3599 18.6271H43.9581C43.9581 18.6271 44.0295 17.9569 44.0295 17.3276C44.0295 15.3754 43.4055 13.7485 42.1309 12.4203C40.8848 11.0922 39.259 10.4414 37.2792 10.4414C35.1925 10.4414 33.4838 11.0922 32.128 12.4203C30.7999 13.7485 30.1225 15.4832 30.1225 17.6529V17.7599C30.1225 19.9019 30.7999 21.6098 32.128 22.8845C33.4563 24.1583 35.2185 24.8091 37.3603 24.8091C39.8508 24.8091 41.8322 23.8267 43.319 22.1331L40.8829 20.7265V20.7265ZM34.6488 14.0738C35.3797 13.5043 36.2756 13.2065 37.2782 13.2065C38.2267 13.2065 39.0129 13.5043 39.6912 14.1015C40.3383 14.6452 40.6879 15.313 40.7181 16.0805H33.4438C33.5488 15.287 33.95 14.6186 34.6497 14.0748L34.6488 14.074V14.0738ZM73.9024 26.6507C72.5716 29.7928 71.1793 30.8617 69.0446 30.8617H67.5648V27.9539H68.761C69.4955 27.9539 70.1784 27.6775 70.829 26.1765L71.4797 24.6735L65.8677 10.8212H69.2023L73.1874 20.7978L77.2815 10.8212H80.6152L73.9034 26.6506H73.9024V26.6507ZM25.294 5.5896V12.0585C24.219 11.0958 22.5469 10.5226 20.9299 10.5226C19.0046 10.5226 17.3787 11.2 16.0506 12.5817C14.7493 13.9375 14.0985 15.6179 14.0985 17.6511C14.0985 19.6854 14.7493 21.3656 16.0506 22.7481C17.3787 24.1038 19.0055 24.7823 20.93 24.7823C23.1495 24.7823 24.5524 23.9097 25.294 23.226V24.4838H28.5475V5.59039H25.294V5.5896V5.5896ZM24.3179 20.6347C23.5318 21.4209 22.5291 21.8282 21.3632 21.8282C20.1973 21.8282 19.2489 21.4209 18.4626 20.6347C17.705 19.8485 17.3244 18.8456 17.3244 17.6529C17.3244 16.4593 17.7042 15.4565 18.4628 14.6703C19.2489 13.8841 20.1973 13.4775 21.363 13.4775C22.5291 13.4775 23.5318 13.8841 24.3179 14.6703C25.1309 15.4565 25.5391 16.4593 25.5391 17.6529C25.5391 18.8456 25.1309 19.8485 24.3179 20.6347V20.6347ZM60.8102 10.5502C58.3393 10.5502 57.055 11.5753 56.1751 12.563C55.823 11.8918 54.8319 10.5502 52.5159 10.5502C50.5587 10.5502 49.4053 11.5397 48.8294 12.2438V10.8229H45.6044V24.4855H48.8294V16.6234C48.8294 14.7799 49.9685 13.4517 51.4856 13.4517C53.0322 13.4517 53.9261 14.6177 53.9261 16.4878V24.4846H57.1521V16.6225C57.1521 14.7523 58.2626 13.4509 59.8618 13.4509C61.4074 13.4509 62.3014 14.6167 62.3014 16.4861V24.4838H65.5548V16.026C65.5548 12.464 63.6402 10.551 60.8102 10.551V10.55V10.5502Z" fill="black"/>
</g>
<defs>
<clipPath id="clip0_512_1343">
<rect width="80.6152" height="30.3896" fill="white" transform="translate(0 0.553955)"/>
</clipPath>
</defs>
</svg>
