<svg width="643" height="561" viewBox="0 0 643 561" fill="none" xmlns="http://www.w3.org/2000/svg">
<g opacity="0.1">
<path d="M256.605 -13.0549C239.46 -57.6642 154.637 -79.6931 168.634 9.1279C170.929 23.6916 171.16 48.7689 168.634 79.2932C166.32 107.255 121.021 122.555 107.116 158.685C85.3087 215.347 166.845 254.842 153.87 284.628C136.875 323.641 84.839 340.567 56.0562 361.911C28.9603 382.004 11.7011 414.244 5.07414 447.39C-6.55196 505.541 14.5465 566.481 72.6661 569.513C101.76 571.031 140.132 558.037 188.32 522.918C209.865 507.216 228.863 494.275 245.747 483.812C289.205 456.881 277.521 520.583 329.196 522.918C358.641 524.248 389.393 469.253 412.673 498.588C429.227 519.446 448.223 544.755 475.351 570.774C522.992 616.469 582.556 623.196 590.981 557.981C594.958 527.196 587.54 480.379 562.091 414.061C545.806 371.622 586.314 373.118 590.981 318.733C595.649 264.349 557.483 239.268 585.111 216.76L585.664 216.309C606.723 199.154 629.183 180.858 641.449 145.717C652.015 115.446 651.006 85.4651 641.449 62.4276C631.222 37.7724 611.205 21.0702 585.111 20.4778C558.929 19.8833 526.629 35.5075 491.961 75.5897C469.103 102.017 453.624 40.5252 412.673 46.8111C371.723 53.097 366.032 112.428 341.5 95.22C298.886 65.3275 276.685 39.1904 256.605 -13.0549Z" stroke="white" stroke-width="3"/>
<path d="M339.319 230.279C336.71 223.43 324.549 225.228 323.934 232.65C323.233 241.1 327.505 252.112 327.011 260.583C326.058 276.938 320.28 281.593 308.775 290.213C304.652 293.298 302.025 298.247 301.017 303.336C299.247 312.263 302.458 321.618 311.303 322.084C315.731 322.317 321.571 320.322 328.904 314.931C332.183 312.52 335.074 310.534 337.644 308.927C348.83 301.375 359.24 307.293 363.047 311.196C365.567 314.398 368.457 318.283 372.586 322.277C379.836 329.292 390.816 328.373 390.183 320.313C389.29 308.927 369.85 266.426 390.183 259.015C399.628 255.572 399.318 247.774 397.864 244.238C396.307 240.453 393.261 237.889 389.29 237.798C385.305 237.706 378.705 244.238 375.114 246.258C361.858 253.718 350.029 257.573 339.319 230.279Z" stroke="white" stroke-width="3"/>
<path d="M182.817 28.5608C170.394 -52.2972 247.908 -32.141 263.627 8.75436C282.872 58.751 304.148 82.1831 344.127 108.707C366.611 124.272 372.021 70.0984 409.517 64.2103C447.013 58.3222 461.338 114.123 482.317 90.0833C514.222 53.624 543.888 39.6402 567.852 40.5226C591.66 41.2212 609.913 56.6728 619.135 79.3592C627.747 100.574 628.457 128.105 618.414 155.801C605.307 188.722 586.378 209.213 567.153 225.968C542.044 246.81 576.535 269.832 571.963 319.344C567.392 368.856 530.119 367.358 544.608 405.654C567.387 465.63 573.874 507.875 570.027 535.595C562.188 594.753 507.668 588.41 463.913 546.744C438.823 522.979 421.048 499.99 405.478 481.353C384.062 454.809 355.818 505.023 328.729 504.03C281.377 502.15 291.709 444.359 251.901 468.964C236.272 478.587 218.753 490.4 198.948 504.676C154.299 536.586 119.093 547.564 92.7819 545.378C39.9461 542.39 20.8318 486.719 31.5282 433.608C37.6759 403.247 53.5332 373.734 78.3746 355.313C105.61 335.117 153.482 319.296 169.032 282.326C180.86 254.844 106.586 218.472 126.345 166.48C138.913 133.169 180.048 118.81 182.185 92.9883C184.512 64.8819 184.592 41.8581 182.817 28.5608Z" stroke="white" stroke-width="3"/>
<path d="M197.635 48.8123C186.805 -23.8176 256.897 -5.60031 271.167 31.4463C289.548 79.0253 309.868 99.6763 347.154 122.746C367.558 136.617 372.679 87.779 406.666 82.3083C440.652 76.8376 453.802 126.765 472.871 105.192C501.966 72.4747 528.955 60.1766 550.666 61.3433C572.154 62.1455 588.617 76.2953 596.82 96.938C604.473 116.26 604.884 141.25 595.378 166.28C581.555 196.564 566.473 219.164 549.27 235.33C526.716 254.437 557.481 275.323 553.012 319.801C548.543 364.28 514.561 362.783 527.231 396.811C547.308 450.25 552.854 487.784 549.141 512.349C541.9 565.256 492.505 559.32 452.7 521.819C429.684 500.386 413.156 479.791 398.592 463.437C379.071 439.77 353.377 485.039 328.683 484.387C285.725 482.965 294.688 431.275 258.589 453.474C244.238 462.225 228.223 472.872 210.187 485.674C169.141 514.271 137.153 523.198 113.664 520.352C66.1892 517.418 49.087 467.199 58.8381 419.304C64.4977 391.828 78.9298 365.138 101.48 348.451C127.128 329.469 170.766 314.808 184.848 280.005C195.513 254.917 128.61 221.787 146.29 174.638C157.504 144.256 194.415 130.885 196.372 107.29C198.496 81.6939 198.887 60.7995 197.635 48.8123Z" stroke="white" stroke-width="3"/>
<path d="M211.814 68.2463C202.56 3.5796 265.338 19.9241 278.18 53.2566C295.727 98.5858 315.123 116.532 349.774 136.233C368.129 148.461 372.969 104.781 403.499 99.708C434.029 94.6352 446.024 138.872 463.213 119.686C489.543 90.5918 513.897 79.9341 533.388 81.3886C552.589 82.2968 567.286 95.196 574.482 113.87C581.19 131.368 581.302 153.908 572.318 176.364C557.757 204.119 546.499 228.902 531.291 244.536C511.258 261.977 538.345 280.803 533.971 320.409C529.597 360.015 498.854 358.517 509.724 388.4C527.129 435.499 531.742 468.46 528.159 489.96C521.504 536.81 477.157 531.259 441.241 497.787C420.264 478.608 404.957 460.332 391.376 446.199C373.721 425.323 350.537 465.812 328.2 465.496C289.568 464.529 297.177 418.75 264.73 438.624C251.635 446.534 237.099 456.054 220.805 467.429C183.299 492.817 154.48 499.729 133.776 496.214C91.5891 493.324 76.4728 448.375 85.2936 405.52C90.4738 380.83 103.503 356.865 123.798 341.852C147.899 324.017 187.37 310.463 200.006 277.702C209.523 254.919 149.888 224.912 165.518 182.433C175.393 154.87 208.137 142.441 209.918 120.985C211.841 97.8078 212.545 78.9671 211.814 68.2463Z" stroke="white" stroke-width="3"/>
<path d="M226.626 87.6792C218.965 30.9782 274.318 45.4496 285.709 75.0673C302.391 118.151 320.829 133.39 352.784 149.72C369.057 160.305 373.608 121.784 400.627 117.109C427.646 112.433 438.465 150.977 453.743 134.179C477.262 108.709 498.937 99.6931 516.174 101.436C533.053 102.451 545.959 114.099 552.136 130.804C557.886 146.479 557.698 166.568 549.253 186.449C533.979 211.676 526.565 238.649 513.38 253.753C495.903 269.528 519.264 286.295 514.993 321.027C510.722 355.76 483.271 354.258 492.322 379.996C507.025 420.751 510.697 449.138 507.248 467.571C501.191 508.361 461.972 503.195 430.009 473.752C411.107 456.828 397.048 440.873 384.474 428.963C368.716 410.878 348.083 446.585 328.143 446.608C293.906 446.095 300.147 406.229 271.411 423.777C259.594 430.847 246.564 439.239 232.04 449.187C198.14 471.364 172.54 476.258 154.658 472.074C117.835 469.227 104.732 429.549 112.606 391.735C117.298 369.831 128.902 348.594 146.904 335.254C169.416 318.565 204.65 306.117 215.818 275.397C224.17 254.919 171.909 228.034 185.461 190.227C193.98 165.483 222.499 153.994 224.1 134.679C225.82 113.92 226.835 97.1333 226.626 87.6792Z" stroke="white" stroke-width="3"/>
<path d="M241.431 108.027C235.363 59.4184 283.288 71.9842 293.229 97.8208C309.042 138.561 326.52 151.06 355.775 163.983C369.966 172.9 374.227 139.624 397.734 135.357C421.241 131.091 430.883 163.856 444.25 149.483C464.957 127.694 483.951 120.339 498.934 122.367C513.491 123.485 524.606 133.857 529.764 148.555C534.556 162.372 534.069 179.966 526.163 197.227C510.181 219.869 506.608 248.97 495.445 263.51C480.525 277.582 500.159 292.252 495.992 322.033C491.825 351.815 467.668 350.314 474.901 371.849C486.901 406.169 489.633 429.918 486.321 445.243C480.863 479.883 446.771 475.114 418.762 449.767C401.938 435.135 389.128 421.535 377.562 411.875C363.702 396.622 345.621 427.468 328.078 427.828C298.238 427.77 303.112 393.907 278.087 409.089C267.55 415.303 256.026 422.549 243.273 431.048C212.982 449.965 190.602 452.831 175.542 447.986C144.082 445.19 132.992 410.871 139.92 378.183C144.123 359.114 154.3 340.652 170.01 329.014C190.929 313.51 221.925 302.196 231.624 273.587C238.811 255.458 193.925 231.756 205.398 198.705C212.563 176.837 236.856 166.314 238.277 149.183C239.794 130.889 241.118 116.193 241.431 108.027Z" stroke="white" stroke-width="3"/>
<path d="M255.595 127.46C251.107 86.8213 291.705 97.5133 300.216 119.634C315.194 158.132 331.747 167.922 358.364 177.471C370.503 184.744 374.482 156.629 394.526 152.76C414.57 148.89 423.055 175.959 434.54 163.977C452.476 145.814 468.831 140.101 481.59 142.418C493.856 143.644 503.202 152.765 507.351 165.493C511.195 177.486 510.408 192.628 503.025 207.313C486.302 227.428 486.563 258.728 477.399 272.739C465.004 285.146 480.953 297.755 476.881 322.66C472.809 347.566 451.896 346.062 457.326 363.448C466.649 391.421 468.446 410.592 465.262 422.848C460.391 451.424 431.357 447.04 407.244 425.725C392.462 413.349 380.875 402.071 370.293 394.635C358.302 382.175 342.736 408.237 327.553 408.936C302.047 409.333 305.564 381.388 284.198 394.243C274.919 399.615 264.877 405.733 253.868 412.804C227.123 428.51 207.917 429.355 195.648 423.838C169.486 421.084 160.385 392.038 166.382 364.395C170.104 348.113 178.876 332.378 192.326 322.415C211.696 308.056 238.519 297.847 246.769 271.277C252.806 255.453 215.202 234.875 224.62 206.497C230.444 187.448 250.562 177.865 251.806 162.876C253.123 147 254.761 134.359 255.595 127.46Z" stroke="white" stroke-width="3"/>
<path d="M270.384 146.892C267.486 114.229 300.65 123.046 307.709 141.449C321.811 177.713 337.395 184.791 361.302 190.96C371.356 196.586 375.043 173.637 391.571 170.165C408.099 166.693 415.405 188.06 424.976 178.469C440.095 163.935 453.766 159.867 464.268 162.475C474.21 163.808 481.763 171.678 484.893 182.437C487.779 192.606 486.695 205.295 479.855 217.402C462.436 234.99 466.527 268.507 459.386 281.993C449.549 292.733 461.772 303.282 457.806 323.307C453.84 343.332 436.226 341.825 439.839 355.058C446.46 376.676 447.318 391.264 444.272 400.448C440.002 422.956 416.102 418.955 395.948 401.675C383.247 391.556 372.914 382.601 363.345 377.394C353.254 367.73 340.244 389.005 327.462 390.044C306.358 390.897 308.509 368.874 290.859 379.4C282.862 383.932 274.328 388.921 265.094 394.563C241.965 407.054 225.984 405.873 216.538 399.68C195.743 396.969 188.655 373.2 193.704 350.604C196.937 337.11 204.28 324.105 215.434 315.816C233.203 302.6 255.781 293.496 262.561 268.961C267.432 255.442 237.209 237.988 244.548 214.285C249.016 198.057 264.906 189.413 265.97 176.564C267.083 163.108 269.029 152.523 270.384 146.892Z" stroke="white" stroke-width="3"/>
<path d="M284.756 166.322C283.437 141.646 309.345 148.586 314.989 163.268C328.299 197.309 343.004 201.67 364.338 204.451C372.362 208.428 375.778 190.649 388.88 187.574C401.982 184.498 408.149 200.156 415.858 192.959C428.244 182.059 439.306 179.64 447.607 182.541C455.279 183.983 461.079 190.602 463.206 199.389C465.149 207.733 463.76 217.969 457.423 227.496C439.202 242.556 447.159 278.315 442.004 291.283C434.673 300.356 443.231 308.842 439.348 323.981C435.464 339.12 421.053 337.608 422.865 346.681C426.818 361.934 426.74 371.931 423.813 378.037C420.119 394.466 401.224 390.849 384.919 377.608C374.229 369.749 365.091 363.121 356.48 360.147C348.234 353.284 337.708 369.766 327.258 371.146C310.44 372.458 311.235 356.367 297.204 364.562L296.814 364.775C290.173 368.4 283.229 372.192 275.862 376.322C256.221 385.593 243.377 382.379 236.705 375.505C221.167 372.834 216.055 354.347 220.184 336.804C222.945 326.101 228.9 315.828 237.82 309.215C254.09 297.139 272.547 289.14 277.893 266.633C281.625 255.42 258.62 241.091 263.919 222.067C267.054 208.661 278.8 200.954 279.689 190.248C280.605 179.212 282.872 170.684 284.756 166.322Z" stroke="white" stroke-width="3"/>
<path d="M299.508 186.695C299.779 170.113 318.23 175.146 322.416 186.042C334.833 217.707 348.549 219.332 367.148 218.713C373.079 221.024 376.199 208.494 385.773 205.829C395.347 203.164 400.328 213.044 406.116 208.273C415.672 201.055 424.04 200.294 430.076 203.476C435.417 205.019 439.419 210.358 440.526 217.135C441.51 223.617 439.825 231.353 434.039 238.257C415.151 250.723 426.92 288.561 423.791 300.95C419.024 308.317 423.85 314.702 420.078 324.889C416.306 335.075 405.209 333.566 405.205 338.439C406.456 347.26 405.44 352.623 402.655 355.624C399.565 365.903 385.822 362.686 373.493 353.542C364.895 347.978 357.022 343.706 349.434 342.977C343.097 338.944 335.137 350.562 327.098 352.277C314.698 354.041 314.129 343.952 303.826 349.779C298.358 352.611 292.802 355.323 287.071 358.085C271.068 364.096 261.461 358.864 257.617 351.34C247.457 348.723 244.363 335.599 247.54 323.186C249.808 315.322 254.328 307.826 260.944 302.918C275.593 292.037 289.786 285.178 293.658 264.801C296.22 255.944 280.616 244.805 283.831 230.544C285.609 220.018 293.118 213.285 293.826 204.767C294.537 196.201 297.108 189.768 299.508 186.695Z" stroke="white" stroke-width="3"/>
<path d="M314.479 206.152C316.333 197.607 327.384 200.749 330.125 207.892C341.668 237.252 354.418 236.152 370.318 232.144C374.174 232.797 377.003 225.476 383.078 223.214C389.153 220.953 392.96 225.092 396.843 222.731C403.595 219.168 409.292 220.06 413.081 223.527C416.11 225.175 418.328 229.249 418.42 234.035C418.452 238.673 416.471 243.933 411.226 248.237C391.649 258.142 407.226 298.129 406.111 309.967C403.889 315.647 405.007 319.951 401.341 325.221C397.676 330.49 389.862 328.98 388.05 329.676C386.614 332.104 384.664 332.857 382.017 332.768C379.524 336.938 370.891 334.112 362.503 329.035C355.977 325.747 349.352 323.815 342.774 325.323C338.328 324.105 332.912 330.896 327.263 332.948C319.244 335.167 317.316 331.04 310.711 334.52C306.519 336.502 302.465 338.076 298.5 339.398C286.098 342.171 279.7 334.917 278.665 326.73C273.846 324.16 272.755 316.357 274.989 309.033C276.768 303.983 279.867 299.241 284.198 296.023C297.252 286.311 307.22 280.574 309.628 262.28C311.03 255.753 302.77 247.771 303.917 238.23C304.345 230.556 307.648 224.778 308.176 218.426C308.684 212.304 311.562 207.946 314.479 206.152Z" stroke="white" stroke-width="3"/>
</g>
</svg>
