<svg width="17" height="13" viewBox="0 0 17 13" fill="none" xmlns="http://www.w3.org/2000/svg">
<path d="M15.8371 2.43673L6.23711 12.0367C6.15349 12.1206 6.05414 12.1872 5.94474 12.2326C5.83535 12.2781 5.71806 12.3014 5.59961 12.3014C5.48116 12.3014 5.36387 12.2781 5.25447 12.2326C5.14507 12.1872 5.04572 12.1206 4.96211 12.0367L0.762108 7.83673C0.67839 7.75301 0.611982 7.65363 0.566674 7.54424C0.521366 7.43486 0.498047 7.31763 0.498047 7.19923C0.498047 7.08084 0.521366 6.9636 0.566674 6.85422C0.611982 6.74484 0.67839 6.64545 0.762108 6.56173C0.845826 6.47801 0.945213 6.4116 1.0546 6.3663C1.16398 6.32099 1.28121 6.29767 1.39961 6.29767C1.518 6.29767 1.63524 6.32099 1.74462 6.3663C1.854 6.4116 1.95339 6.47801 2.03711 6.56173L5.60036 10.125L14.5636 1.16323C14.7327 0.994155 14.962 0.89917 15.2011 0.89917C15.4402 0.89917 15.6695 0.994155 15.8386 1.16323C16.0077 1.33231 16.1027 1.56162 16.1027 1.80073C16.1027 2.03984 16.0077 2.26916 15.8386 2.43823L15.8371 2.43673Z" fill="black"/>
</svg>
