<svg width="24" height="24" viewBox="0 0 24 24" fill="none" xmlns="http://www.w3.org/2000/svg">
<path d="M21.3207 3.73685C21.3046 3.46162 21.188 3.20188 20.9931 3.00694C20.7981 2.812 20.5384 2.69542 20.2632 2.67935C16.5507 2.46091 13.2704 2.89872 10.5132 3.97966C7.87504 5.01372 5.8416 6.61685 4.63035 8.6156C2.97847 11.3447 2.97472 14.6578 4.58816 17.8209L2.9541 19.455C2.84945 19.5596 2.76644 19.6839 2.70981 19.8206C2.65317 19.9573 2.62402 20.1039 2.62402 20.2519C2.62402 20.3998 2.65317 20.5464 2.70981 20.6831C2.76644 20.8198 2.84945 20.9441 2.9541 21.0487C3.16544 21.2601 3.45209 21.3788 3.75097 21.3788C3.89897 21.3788 4.04551 21.3497 4.18224 21.293C4.31897 21.2364 4.4432 21.1534 4.54785 21.0487L6.18191 19.4147C7.75129 20.2153 9.35816 20.6193 10.9116 20.6193C12.4899 20.6243 14.0388 20.1927 15.3872 19.3725C17.386 18.1612 18.9891 16.1268 20.0232 13.4897C21.1013 10.7306 21.5391 7.44935 21.3207 3.73685ZM14.2182 17.445C12.3347 18.5859 10.125 18.6722 7.86941 17.7187L15.795 9.7931C15.8997 9.68845 15.9827 9.56422 16.0393 9.42749C16.096 9.29076 16.1251 9.14422 16.1251 8.99622C16.1251 8.84823 16.096 8.70169 16.0393 8.56496C15.9827 8.42823 15.8997 8.304 15.795 8.19935C15.6904 8.0947 15.5662 8.01169 15.4294 7.95506C15.2927 7.89842 15.1462 7.86927 14.9982 7.86927C14.8502 7.86927 14.7036 7.89842 14.5669 7.95506C14.4302 8.01169 14.3059 8.0947 14.2013 8.19935L6.28129 16.1306C5.33066 13.8806 5.41691 11.6653 6.56254 9.78185C8.52285 6.54466 13.1757 4.7456 19.125 4.88341C19.2544 10.8309 17.4554 15.4847 14.2182 17.445Z" fill="black"/>
</svg>
