<svg width="24" height="24" viewBox="0 0 24 24" fill="none" xmlns="http://www.w3.org/2000/svg">
<path d="M21.4935 8.47499C22.3 10.6412 22.341 13.0182 21.6097 15.211C20.8784 17.4038 19.4188 19.2803 17.4734 20.5288C15.5281 21.7772 13.2141 22.3225 10.916 22.074C8.61794 21.8254 6.47407 20.798 4.84065 19.1625C3.00582 17.3337 1.94176 14.8712 1.86745 12.2817C1.79314 9.69217 2.71422 7.17268 4.44116 5.24168C6.16809 3.31068 8.5695 2.11507 11.1512 1.90089C13.7329 1.68672 16.2985 2.47027 18.32 4.0903L20.2044 2.20499C20.309 2.10034 20.4333 2.01733 20.57 1.9607C20.7067 1.90406 20.8533 1.87491 21.0013 1.87491C21.1493 1.87491 21.2958 1.90406 21.4325 1.9607C21.5693 2.01733 21.6935 2.10034 21.7981 2.20499C21.9028 2.30964 21.9858 2.43387 22.0424 2.5706C22.0991 2.70733 22.1282 2.85387 22.1282 3.00186C22.1282 3.14986 22.0991 3.2964 22.0424 3.43313C21.9858 3.56986 21.9028 3.69409 21.7981 3.79874L12.7981 12.7987C12.6935 12.9034 12.5693 12.9864 12.4325 13.043C12.2958 13.0997 12.1493 13.1288 12.0013 13.1288C11.8533 13.1288 11.7067 13.0997 11.57 13.043C11.4333 12.9864 11.309 12.9034 11.2044 12.7987C11.0998 12.6941 11.0167 12.5699 10.9601 12.4331C10.9035 12.2964 10.8743 12.1499 10.8743 12.0019C10.8743 11.8539 10.9035 11.7073 10.9601 11.5706C11.0167 11.4339 11.0998 11.3096 11.2044 11.205L13.4544 8.95499C12.8203 8.65201 12.1073 8.55457 11.4152 8.67624C10.723 8.79792 10.086 9.13264 9.59321 9.63372C9.1004 10.1348 8.77631 10.7772 8.66616 11.4713C8.55602 12.1654 8.66531 12.8766 8.97879 13.5057C9.29227 14.1347 9.79429 14.6501 10.4148 14.9801C11.0353 15.3101 11.7434 15.4381 12.4402 15.3464C13.137 15.2546 13.7877 14.9476 14.3016 14.4682C14.8155 13.9888 15.167 13.3609 15.3069 12.6722C15.3658 12.3797 15.5385 12.1225 15.7871 11.9573C16.0356 11.7922 16.3395 11.7325 16.6321 11.7914C16.9246 11.8503 17.1817 12.023 17.3469 12.2716C17.5121 12.5201 17.5718 12.824 17.5128 13.1166C17.2732 14.297 16.6609 15.3694 15.7662 16.1758C14.8714 16.9823 13.7414 17.4802 12.5425 17.5963C11.3436 17.7124 10.139 17.4406 9.10614 16.8208C8.07326 16.2011 7.26661 15.2661 6.8049 14.1536C6.34319 13.041 6.25082 11.8096 6.54137 10.6407C6.83192 9.47169 7.49005 8.42685 8.41891 7.65993C9.34776 6.89301 10.4983 6.44451 11.7011 6.38045C12.904 6.31638 14.0956 6.64013 15.1006 7.30405L16.716 5.69436C15.1986 4.56116 13.3237 4.01271 11.4349 4.14952C9.54602 4.28633 7.76973 5.09923 6.43152 6.43926C5.09331 7.77928 4.28282 9.55668 4.14857 11.4457C4.01433 13.3347 4.56532 15.2089 5.70058 16.7247C6.83584 18.2405 8.47932 19.2964 10.3298 19.699C12.1804 20.1015 14.114 19.8237 15.7763 18.9165C17.4387 18.0093 18.7184 16.5334 19.381 14.7593C20.0436 12.9852 20.0447 11.0317 19.3841 9.25686C19.3315 9.1181 19.3069 8.97031 19.3117 8.822C19.3164 8.67368 19.3505 8.52778 19.4119 8.39268C19.4733 8.25759 19.5608 8.13598 19.6694 8.03485C19.778 7.93373 19.9055 7.85509 20.0447 7.80346C20.1838 7.75183 20.3317 7.72823 20.48 7.73403C20.6283 7.73982 20.774 7.7749 20.9086 7.83723C21.0433 7.89956 21.1643 7.98792 21.2647 8.09721C21.365 8.20651 21.4428 8.33458 21.4935 8.47405V8.47499Z" fill="black"/>
</svg>
