<svg width="24" height="24" viewBox="0 0 24 24" fill="none" xmlns="http://www.w3.org/2000/svg">
<path d="M17.6307 7.13598C17.5137 7.07698 17.4007 7.01198 17.2897 6.94098C16.9697 6.73298 16.6757 6.48798 16.4147 6.21098C15.7627 5.47798 15.5187 4.73398 15.4287 4.21298H15.4327C15.3577 3.77998 15.3887 3.50098 15.3937 3.50098H12.4207V14.79C12.4207 14.942 12.4207 15.092 12.4147 15.24C12.4147 15.258 12.4127 15.275 12.4117 15.295C12.4117 15.303 12.4117 15.311 12.4097 15.32V15.326C12.3457 16.149 11.8697 16.886 11.1397 17.294C10.7647 17.503 10.3417 17.613 9.90967 17.613C8.52567 17.613 7.40267 16.503 7.40267 15.134C7.40267 13.764 8.52567 12.655 9.90967 12.655C10.1727 12.654 10.4327 12.695 10.6817 12.775L10.6857 9.80198C9.15567 9.60798 7.61367 10.051 6.43167 11.024C5.91867 11.462 5.48867 11.983 5.15867 12.566C5.03267 12.779 4.55967 13.632 4.50267 15.018C4.46667 15.805 4.70667 16.62 4.82167 16.956V16.964C4.89367 17.162 5.17267 17.839 5.62867 18.409C5.99567 18.867 6.42967 19.269 6.91567 19.602V19.595L6.92267 19.602C8.36167 20.563 9.95767 20.5 9.95767 20.5C10.2337 20.489 11.1587 20.5 12.2097 20.011C13.3747 19.468 14.0377 18.661 14.0377 18.661C14.4617 18.178 14.7987 17.628 15.0347 17.034C15.3037 16.34 15.3937 15.507 15.3937 15.174V9.18398C15.4297 9.20598 15.9097 9.51798 15.9097 9.51798C15.9097 9.51798 16.6017 9.95298 17.6807 10.237C18.4557 10.439 19.4987 10.481 19.4987 10.481V7.58298C19.1327 7.62198 18.3907 7.50798 17.6307 7.13598Z" fill="#808080"/>
</svg>
